<svg xmlns="http://www.w3.org/2000/svg" xml:space="preserve" viewBox="0 0 1117 1164"><path fill="currentColor" d="M859.802 646.49c20.52-14.479 38.188-31.505 53.09-51.526 13.09-17.587 22.528-37.034 31.175-57.36 1.855-10.205 9.608-15.672 18.684-13.483 9.507 2.293 14.544 11.356 11.237 20.874-4.692 13.504-10.328 26.632-15.932 39.79-9.625 22.603-21.408 43.963-35.56 63.971-12.861 18.184-26.646 35.617-43.684 50.259-6.298 5.412-11.918 11.606-19.707 15.723-2.712 1.799-5.078 3.451-7.768 5.203-1.426.882-2.632 1.447-3.951 2.162-.026.333-.23.25-.12.26-.97.271-1.706 1.268-2.9 1.722-.153.197-.256.062-.2.126-2.046.858-3.708 2.483-5.786 3.834-.076.329-.393.068-.243.208-3.822.534-4.517-1.647-2.47-4.225 2.059-2.596 1.67-4.577.403-7.162-1.254-2.56-1.496-5.485-.881-8.247.869-3.906-.605-6.362-4.261-8.25-.593-1.39.033-2.173.925-3.215 2.36-2.473 2.55-5.275 2.595-8.084.07-4.436-.818-8.808-.813-13.262.006-4.806-3.717-6.085-7.905-7.129-1.56-1.872-.173-2.734.892-3.343 9.665-5.527 19.128-11.414 29.474-16.399.367-.018.731-.075.876-.19-.33-2.174 1.252-2.066 2.83-2.257"/><path fill="currentColor" d="M843.78 600.804c11.517-10.536 22.497-21.1 31.528-33.618 4.509-6.25 12.516-7.149 19.093-3.426 4.997 2.828 7.729 11.146 6.188 17.653-1.186 5.013-4.977 7.703-8.201 11.187-6.106 6.597-12.005 13.388-18.436 19.684-5.711 5.592-11.572 11.015-18.234 16.01-.665.073-1.088.01-1.205-.249-3.505-7.756-9.508-13.076-16.726-17.222-1.356-.779-1.71-1.931-1.155-3.742.058-.36.245-.153.168-.27.957-.602 2.014-1.045 2.723-2.023-.206-.273-.096-.425-.01-.465.443.51.803.515 1.03-.383-.136-.349-.05-.436 0-.47.436.31.788.298 1.118-.473.017-.338.334-.151.168-.23.251.006.585-.132.897-.752.05-.292.132-.138.065-.193.353-.152.623-.413.99-1.018"/><path fill="currentColor" d="M836.363 606.816c.666.818.926 2.487 1.358 2.532 7.763.82 9.36 9.799 16.16 12.071 2.313.773-.541 4.367 1.388 6.614.127.372.098.354.092.368-1.547.448-2.565 1.749-3.936 2.735.036.33-.032.345-.037.38-4.085 1.952-7.501 4.844-11.229 7.825-.309.458-.433.64-.796 1.047-.758.609-1.328.907-2.115 1.446-.388.359-.547.5-.944.855a21 21 0 0 0-1.87 1.86c-11.673 8.212-24.355 13.522-37.885 17.915-1.872.71-3.397.871-5.285.127-2.105-3.2-.113-4.4 2.209-5.326 2.276-.907 5.246-1.19 5.807-4.03.888-4.485 3.338-8.696 2.505-13.501-.42-2.43-2.108-2.914-4.25-3.31-3.174-.585-6.655.62-9.522-1.961 17.087-7.543 33.441-15.983 48.35-27.647"/><path fill="currentColor" d="M726.63 639.695c1.968.447 3.702.716 6.072 1.16 1.638-.881 2.584.19 3.859.348.885.084 1.468.071 2.307.207.295.576.539.78 1.082.536.54-.298.957-.34 1.667-.26 4.079.399 7.862.485 11.997-.055.83-.235 1.306-.332 2.147-.367 7.313-.007 14.148-.967 20.823-2.854 2.78-.787 4.248-.2 5.211 2.695 2.276 6.838 4.822 13.589 8.424 20.28-.23 1.414-1.227 1.834-2.216 2.772-4.974 2.959-10.155 3.997-15.779 4.779-1.927-.048-3.496-.918-5.38.17-.778.319-1.246.44-2.103.531-2.423-.318-4.484-.17-6.944-.181-11.205 1.932-21.888.247-32.585-1.027-1.002-.119-1.977-.28-3.096-1.16-.474-4.61 2.76-3.541 4.882-3.194 4.605.754 8.91-.076 13.247-1.406 2.509-.769 3.738-2.082 2.693-4.762-2.448-6.28-4.924-12.537-13.388-13.326-1.193-.486-1.956-1.067-3.243-1.306a10 10 0 0 1-1.343-.438c-1.164-.62-1.88-1.213-2.186-2.505.34-.669.717-.869 1.49-.876.918.052 1.525.048 2.363.24"/><path fill="currentColor" d="M829.912 699.65c7.19 1.417 7.733 2.298 6.645 9.294-.56 3.603.164 7.107 2.21 10.106 1.48 2.17 1.276 3.384-1.02 4.676-2.175 1.224-3.623 2.85.215 4.534-1.45 1.426-3.227 2.718-5.239 4.26-2.833 4.53-7.59 5.86-11.602 7.812-10.29 5.007-20.432 10.45-31.446 13.827-3.146.964-6.243 2.393-10.037 1.538-1.148-.72-1.03-1.46-.603-2.564.845-1.168 1.691-1.668 3.11-1.762.85-.347.904 1.38 1.74-.012 3.49-3.077 6.802-5.502 11.315-6.462 4.728-1.005 8.745-3.992 12.33-7.297.82-.755 2.633-1.542.854-3.112-3.529-3.113-1.392-5.926.454-8.745 2.33-3.558 1.795-4.882-2.27-5.701-3.081-.622-5.96.123-8.76 1.264-6.47 2.638-13.038 5.019-19.552 7.542-1.792.695-4.346 2.226-4.165-2.148.942-1.497 2.148-2.077 3.415-2.495 15.872-5.234 30.283-13.578 45.36-21.287a8.3 8.3 0 0 1 1.822-.431c.443-.133.608-.216.997-.461.366-.278.508-.394.867-.683.511-.39.816-.594 1.365-.919.397-.213.56-.291.97-.47a5.8 5.8 0 0 1 1.025-.304"/><path fill="currentColor" d="M649.612 596.242c.487.837.97 1.347 1.69 1.98 3.375.493 4.862 3.283 6.956 5.146-.222.285-.056.495.07.539 3.142.387 5.064 2.663 7.33 4.524.629.91 1.35 1.464 2.33 2.107 6.686 3.329 12.459 7.656 18.702 11.207 1.271.722 2.17 2.057 2.429 3.964-.529 1.09-1.193 1.554-1.957 1.93-2.245 1.103-5.686-.495-6.882 2.93-1.634 4.684-3.873 9.278-2.37 14.495.5 1.735 1.375 3.436.627 5.663-.521.669-.936.91-1.762 1.108-.594.017-.83-.012-1.394-.164-1.534-1.039-2.399-2.555-4.594-2.392-7.016-2.917-13.246-6.456-18.575-12.034-3.872-6.15-4.867-11.998-3.235-19.078 1.48-6.422 1.2-13.53-3.582-19.313-.96-1.16-1.493-2.577-.775-4.502.903-.902 1.66-.99 2.625-.275.15.379.242.446.29.478 1.137-.158 1.514.74 2.077 1.687"/><path fill="currentColor" d="M572.72 514.194c8.13 8.98 15.883 18.274 23.783 27.44 11.7 13.572 24.452 26.152 37.289 39.085.44.45.633.7 1.056 1.024 1.273-.728 1.489.12 1.74 1.238-.134.617-.246.846-.699 1.245-6.622-1.556-9.7-7.329-14.696-11.251-5.66-5.414-10.515-11.152-16.464-15.749-4.154-3.21-6.277-8.155-9.976-11.758-.94-.916-1.81-2.18-3.362-1.562-1.543.615-1.202 2.137-1.406 3.433-1.21 7.707-2.347 15.414-1.966 23.585-.31.746-.58 1.111-1.233 1.555-.522.163-.74.19-1.278.172-.518-.124-.715-.203-1.417-.643-.655-.497-.805-.634-1.387-1.195-.575-.567-.718-.71-1.281-1.31-.55-.621-.678-.788-.978-1.226a10 10 0 0 1-.59-1.155c-1.197-3.2-3.369-4.985-6.407-6.4-.693-.523-1.012-.907-1.433-1.698-3.075-7.683-2.445-15.16-1.188-22.684.216-1.293-.194-2.63-.337-3.944-.18-1.645-.172-3.37-.672-4.903-.829-2.545 2.395-3.839 1.732-5.943-.825-2.621-.315-4.843 1.17-7.356"/><path fill="currentColor" d="M591.003 709.002c-4.012-2.053-7.15-4.995-10.612-8.023-.816-.666-1.306-1.25-2.068-1.943a242 242 0 0 1-9.058-9.785c1.377-7.472 1.917-14.783 2.177-22.041.265-7.422-1.766-14.484-6.39-20.586-1.09-1.439-2.268-2.956-1.31-5.31.7-.011 1.152.283 1.86.68 4.487 1.004 5.72 5.28 8.971 7.795.452.343.624.492 1.027.89 1.066 1.597 2.136 2.746 3.491 4.104.382.43.529.61.875 1.076 3.066 4.572 7.226 7.643 10.63 11.423 1.277 1.417 3.152 2.566 2.216 5.217-7.809 3.268-6.462 10.26-6.738 16.042-.275 5.775-.63 12.012 4.588 16.538.95.824 1.28 2.33.341 3.923"/><path fill="currentColor" d="M789.743 662.14c-1.258-1.237-2.327-2.224-3.124-4.103-1.085-2.561-.347-6.662-4.617-7.353-.314-.05-.796-1.054-.743-1.101 4.403-3.915-2.377-6.102-1.514-9.652.369-1.52-1.566-.694-2.463-.532-6.78 1.228-13.454 3.348-20.823 2.13 10.407-1.127 20.837-3.415 31.237-7.37 3.498.237 6.656.627 9.825.815 4.886.29 7.451 3.359 6.12 8.312-.934 3.48-1.938 6.931-2.654 10.47-.511 2.527-2.144 3.841-4.749 4.323-2.102.388-4.917.097-5.168 3.82-.034.849-.282 1.149-.994 1.202-.372-.314-.45-.511-.333-.96"/><path fill="currentColor" d="M690.959 627.27c7.514 2.666 14.866 5.7 22.574 8.718.807.233 1.26.48 2.098.764 2.095-1.218 3.434-.235 5.009 1.016 1.414.63 2.589 1.006 4.19 1.725-.108.388-.643.432-1.58.506-1.567 1.344-3.083 1.243-4.52.845-8.591-2.378-16.975-5.32-24.84-9.58-1.453-.787-2.786-1.801-2.931-3.993"/><path fill="currentColor" d="M841.052 639.412c-.581.386-.963.51-1.642.68 2.264-4.59 6.693-6.787 11.615-8.674-3.02 2.665-6.396 5.198-9.973 7.994"/><path fill="currentColor" d="M753.52 641.418c-3.17 3.009-7.16 1.379-11.327.704 3.44-.468 7.16-.624 11.328-.704"/><path fill="currentColor" d="M764.134 759.928c-3.154.52-6.191.922-9.648 1.287 1.028-4.783 4.83-3.52 8.593-3.24.643.347.876.529 1.232 1.136.124.425-.06.7-.177.817"/><path fill="currentColor" d="M838.627 728.282c.265-2.793 2.473-3.607 5.335-3.961-1.428 1.349-3.22 2.609-5.335 3.961"/><path fill="currentColor" d="M766.273 759.339c-.609.01-.958.065-1.572.158-.266.039-.498-.25-.611-.395.465-3.074 2.817-2.668 5.26-2.671.571.318.762.505 1.029 1.085-.012.645-.099.897-.586 1.163-1.004.093-1.61.171-2.501.359-.445.187-.602.266-1.019.3"/><path fill="currentColor" d="M851.755 631.352c-.286-1.996.928-2.922 3.241-3.03-.743 1.034-1.845 1.975-3.241 3.03"/><path fill="currentColor" d="M770.28 758.177c-.276-.267-.284-.697-.288-.912 1.393-2.375 3.285-2.77 5.874-1.442-.644.728-1.597 1.115-2.726 1.767-.344.279-.51.293-.91.4-.665.41-1.145.53-1.95.187"/><path fill="currentColor" d="M736.624 641.19c-.874 1.182-1.76-.084-3.023-.171.752.026 1.768.043 3.023.17"/><path fill="currentColor" d="M839.064 604.647c.643 1.466-.233 2.02-1.984 2.098.338-.689 1.034-1.328 1.984-2.098"/><path fill="currentColor" d="M725.44 639.86c-.182-.023-.293-.175-.346-.253.833.08 1.72.235 2.603.402.048.01.077.115.115.176-.145.044-.29.089-.692-.09-.67-.219-1.084-.215-1.68-.235"/><path fill="currentColor" d="M847.665 722.34c-.066-1.636 1.403-1.81 3.006-2.274-.673.71-1.687 1.445-3.006 2.275"/><path fill="currentColor" d="M844.616 724.326c-.16-1.343 1.005-1.591 2.414-1.955-.474.621-1.294 1.242-2.414 1.955M843.8 600.695c-.06.28-.328.651-.836 1.047.049-.302.338-.629.836-1.047"/><path fill="currentColor" d="M842.526 601.799c.061.22-.128.515-.59.85-.069-.232.135-.503.59-.85M841.45 602.714c.047.23-.135.515-.587.76-.161-.356.049-.578.587-.76M840.23 603.651c.072.224-.033.509-.385.713-.17-.33-.017-.52.385-.713"/><path fill="currentColor" d="M739.848 641.578c.005.399-.101 1.03-.676.19.119-.24.284-.272.676-.19"/><path fill="currentColor" d="M458.5 561.15c-1.963-.994-3.062-2.363-4.272-4.047-1.968-2.78-3.745-5.328-6.896-6.946-.233-.236-.298-.17-.289-.216-.176-.18-.362-.316-.774-.713-.226-.26-.269-.228-.253-.25-.16-.175-.337-.328-.745-.745-.232-.263-.271-.233-.256-.253-.23-.216-.464-.424-.838-.824-.49-.233-.766-.396-1.076-.896-10.606-11.174-22.93-19.841-35.708-28.524-3.207-2.65-6.983-3.765-9.685-6.575-2.086-2.17-3.337-4.459-2.822-7.522.247-1.466.707-3.041.119-4.41-2.371-5.517 1.584-8.726 4.53-12.065 2.37-2.688 5.193-.564 8.137.387 4.989 2.078 9.232 4.834 14.119 7.125.341.119.373.167.393.146.487 1.097 1.559 1.396 2.85 1.874 7.047 5.277 13.775 10.51 20.747 15.964.622.935 1.018 1.63 2.08 2.1.278.115.155.109.213.09 1.007 1.423 2.306 2.531 3.867 3.802.288.138.132.326.195.221 2.528 2.75 5.255 5.279 8.359 7.472 2.086 1.475 4.377 3.123 3.78 6.614-6.714 1.488-6.719 1.488-6.91 8.565-.037 1.344-.19 2.682-.732 3.904-1.46 3.292-.627 6.116 1.478 8.826 1.397 1.8 3.25 3.486 2.328 6.51-.628.654-1.11.754-1.939.386"/><path fill="currentColor" d="M356.728 376.513c1.097-.224 1.808-.273 2.87-.253.535.1.718.132 1.177.118a36 36 0 0 1 3.73-.057c1.325.657 2.4.68 3.769.884 2.41.826 4.498 1.66 7.044.394 1.034-.093 1.732-.11 2.75.186 1.934.165 3.535.22 5.526.366 1.62.306-1.686 2.1 1.328 2.201 4.063.138 6.273 3.494 5.878 7.679-.281 2.98-.973 5.92-.829 8.943.161 3.348-1.867 4.859-4.8 5.305-3.123.476-6.219 1.028-9.658 1.93-13.961-1.859-27.306.952-41.114 1.896-2.766-2.982-2.556-6.738-2.798-9.96-.632-8.417-1.413-9.911-9.705-11.985-.817-.204-1.548-.54-2.036-1.624 7.959-3.416 16.351-4.08 24.664-4.94 3.916-.406 7.884-.521 12.204-1.083"/><path fill="currentColor" d="M563.995 641.004c-.336 2.524 1.816 3.806 2.926 5.53 5.476 8.493 7.622 17.477 5.349 27.517-.68 3.005-.135 6.272-.332 9.408-.123 1.946-.372 3.956-2.438 5.411-9.779-9.282-18.647-19.142-27.106-29.374-3.793-4.588-7.57-9.19-11.394-14.133 2.554-1.922 3.871.377 5.505 1.546 1.724 1.235 3.358 1.66 3.19-1.124-.438-7.288.765-14.166 3.917-20.76 1.061-2.22-.244-4.149-1.435-5.999-1.143-1.775-2.776-3.458-1.222-6.053 7.125 6.852 13.045 14.626 18.94 22.831.27.46.442.586.818.96.202.25.276.248.275.285.166.172.332.307.68.708.183.265.303.287.287.345.785.697.916 1.785 1.828 2.697.21.21.217.201.212.205"/><path fill="currentColor" d="M393.048 458.206c-.321-.154-.68-.109-.844-.186-2.847-1.385-5.603-2.448-8.956-2.784-.325-.18-.258-.21-.262-.174-3.455-1.846-7.658-1.087-11.148-3.476 2.08-2.926 4.822-1.8 7.325-1.347 2.919.529 4.794-.042 6.725-2.675 2.462-3.357 4.816-7.172 9.883-8.57-4.352-1.926-7.875-4.09-11.556-5.966-2.684-1.369-4.08-3.37-2.762-6.792 1.047-.99 1.967-.923 3.227-.408 1.487 1.191 2.765 1.986 4.743 1.941.541.09.756.135 1.285.277 1.912.748 3.434 1.617 5.52 1.867.534.138.746.203 1.27.383 2.958 1.174 5.561 2.407 8.88 2.171 8.662 1.518 15.996 5.522 23.344 9.385 5.883 3.093 11.546 6.61 17.272 9.998 1.432.848 2.898 1.704 3.23 3.906-.425.727-.836 1.001-1.668 1.256-5.446-.868-10.235-2.697-14.938-4.8-4.445-1.989-5.732-1.467-7.64 2.972-2.195 5.102-.854 11.78 3.357 15.496 4.372 3.858 9.349 6.902 14.57 10.209 1.71 1.25 2.931 2.464 3.754 4.468.136.876.055 1.368-.398 2.122-9.052-5.293-17.844-10.881-26.656-16.436-6.336-3.994-13.326-6.668-20.361-10.06-.77-.479-1.321-.48-2.024-.827-.204-.17-.22-.155-.216-.165-.436-.443-1.033-.488-1.83-.8-.248-.15-.183-.176-.177-.142-.695-.85-1.76-.413-2.95-.843"/><path fill="currentColor" d="M566.023 619.284c-9.379-9.958-17.671-20.283-25.912-31.056-1.652-11.044 1.337-21.286 3.239-31.625.529-2.874 2.5-4.178 5.915-3.09 3.864 1.174 5.324 4.389 7.551 6.802 4.511 4.887 8.31 10.377 12.93 15.172 1.295 1.344 2.075 3.003 2.562 5.232.193 2.393.25 4.385-.237 6.32-2.128 8.456-1.747 16.945-.676 25.503.706 5.638-.52 7.076-5.372 6.742"/><path fill="currentColor" d="M254.463 469.819c-23.662 11.652-44.766 26.564-62.219 46.449-6.711 7.647-12.805 15.717-17.977 24.49-4.956 8.407-11.877 11.158-19.546 7.932-8.183-3.441-10.989-12.385-6.325-21.502 10.92-21.35 22.96-42.015 38.291-60.588 16.713-20.248 35.348-38.498 57.281-53.028 13.549-8.976 27.693-17.048 43.374-22.857.557.063.749.183.975.641-.426 2.357-2.601 2.702-3.923 4.367-5.043 2.81-9.985 5.06-14.957 7.243-1.974.866-3.893 1.787-5.689 3.588-4.096 4.508-9.98 5.308-14.614 8.853-6.862 6.182-14.614 10.67-21.491 16.857-2.23 1.429-4.296 2.534-5.749 4.36-5.544 6.967-12.631 12.385-18.977 19.044-11.452 11.246-20.39 24.12-29.59 36.692-5.226 7.143-7.07 16.485-12.94 23.433-3.856 4.564-5.885 9.998-7.979 15.412-1.445 3.737-1.539 7.48 1.44 11.056.597.492.953.746 1.616 1.12.688.31 1.083.482 1.78.77 2.223.942 4.123 2.237 6.456.226 6.406-2.945 7.718-9.508 11.291-14.275 1.554-2.073 2.554-4.582 4.265-7.02 3.322-2.632 5.908-5.443 7.879-9.238 8.166-9.17 17.49-16.57 26.811-24.485 4.07-2.633 7.956-4.933 11.327-8.491.42-.384.599-.525 1.068-.843 3.205-2.259 6.327-3.975 9.893-5.571 2.06-.313 3.804-.516 5.399-2.063 1.79-1.262 2.926-2.848 5.105-3.588 2.1-.398 3.835-.8 6.007-.479.855.356 1.256.694 1.718 1.495"/><path fill="currentColor" d="M527.748 461.929c9.151 7.402 16.091 16.819 23.94 25.777.094 4.26 3.286 6.347 5.488 8.79 3.88 4.304 4.928 8.878 3.118 14.234-1.012 2.996-1.674 6.065-2.324 9.156-1.988 9.454-5.367 10.67-13.313 4.677-.748-.354-1.152-.588-1.792-1.078-.586-.51-.9-.818-1.426-1.367a13 13 0 0 1-1.202-1.471c-.54-.77-.905-1.279-1.626-1.916-7.398-6.836-12.636-15.104-19.23-22.204-.796-.856-1.195-1.966-.675-3.51.393-.438.598-.566 1.153-.785 3.529-.146 4.76 2.512 6.564 4.371.582.6 1.213 1.37 2.059 1.212 1.194-.222 1.363-1.397 1.363-2.376.002-7.47 1.11-14.905.594-22.398-.23-3.341-3.107-5.492-3.516-9.065.085-.884.262-1.356.825-2.047"/><path fill="currentColor" d="M350.694 469.27c6.449-.121 12.042 2.425 18.321 3.263 1.67 5.918 1.052 11.783 1.944 17.548.612 3.954-6.43 7.93-11.872 7.012-2.323-.392-4.578-.803-7.337-.351-8.17-.907-15.95-.723-24.112-.818-2.999-3.807-7.58-6.635-5.375-12.54.882-2.363-1.239-4.925-.557-7.727.747-3.068 1.465-5.52 5.308-4.715 1.555.325.474-1.62 1.923-1.715 7.375-.34 14.37-.341 21.757.044"/><path fill="currentColor" d="M458.264 561.231c.33-.332.724-.338 1.415-.352 2.277-1.165 3.31.345 4.707 1.733.906 1.153 1.68 1.944 2.962 2.676 2.58 2.105 4.656 4.238 6.739 6.845 3.006 3.805 6.177 6.966 9.883 9.522 4.477 3.088 8.173 1.548 9.59-3.932 1.746-6.752-.444-12.893-3.686-18.537-2.2-3.832-5.066-7.396-9.011-10.327-4.826-3.835-7.814-9.069-12.995-12.51-.849-.773-1.21-1.573-2.268-2.072-.635-.323-.963-.562-1.404-1.112-.757-3.301-3.118-5.353-5.418-6.447-3.385-1.612-5.173-4.107-6.602-7.573 3.878.043 5.837 3.273 8.468 5.442 15.698 12.943 29.66 27.629 42.633 43.249 4.863 5.855 10.625 10.936 14.872 17.702-4.339.87-5.616 3.519-5.805 7.707-.244 5.405-1.18 10.822-3.728 15.71-.978 1.875-.368 3.91-1.471 5.938-5.52-3.455-8.402-9.196-12.488-13.89-11.744-13.489-23.774-26.707-36.393-39.772"/><path fill="currentColor" d="M520.267 492.648c-.436.3-.655.31-1.201.33-5.87-1.14-8.602-5.927-11.876-9.623a206 206 0 0 0-18.724-18.622c-2.656-2.321-6.013-4.354-6.437-8.693 2.934-1.756 4.635.17 6.225 1.77 2.847 2.864 6.255 4.922 9.564 7.129 1.698 1.132 3.651 2.015 5.603.877 2.14-1.247.94-3.253.617-4.953-.807-4.263-.801-8.622-.893-12.893-.1-4.701-2.03-8.01-5.468-10.581-4.254-3.181-8.139-6.819-12.79-10.047-10.097-6.51-18.116-15.357-29.1-20.599-.465-.316-.664-.421-1.16-.686a20 20 0 0 0-1.859-.85c-8.489-5.75-18.093-8.492-26.884-13.6-.407-.78-.444-1.27-.117-2.083 12.674 3.1 23.926 9.248 34.843 15.852 25.158 15.218 47.667 33.744 67.368 55.993.04.835.02 1.363-.014 2.285-6.989 4.403-7.657 5.831-5.612 13.88.77 3.031 1.255 5.9-.829 8.554-1.512 1.927-.13 4.275-1.256 6.56"/><path fill="currentColor" d="M352.08 496.123c1.454-1.567 3.457-1.53 5.027-.843 4.557 1.992 7.87-.906 11.53-2.483 1.906-.822 1.314-2.382.873-3.807-1.603-5.19-1.267-10.474-.483-15.997 13.814 2.244 26.419 7.268 38.98 13.4.381.482.499.739.357 1.33-.53.52-.931.93-1.05.86-4.868-2.866-7.511-.158-10.16 3.616-1.262 1.798-2.34 3.078-.998 5.233.5.804 1.012 2.039.747 2.814-3.027 8.845 3.408 11.652 9.287 14.866.567.31 1.013.842 1.69 1.568.502.762.636 1.276.337 2.174-11.76-5.486-22.96-11.989-35.24-16.194-3.44-1.178-6.927-2.221-10.7-3.545-1.348-.942-2.559-.457-3.959-.881-.292-.187-.342-.175-.356-.196-1.377-.921-3.048-.518-4.82-1.16-.52-.206-.71-.33-1.062-.755"/><path fill="currentColor" d="M550.1 554.746c-5.53-2.142-5.69 2.093-5.938 5.04-.654 7.766-3.86 15.214-2.757 23.208.185 1.342-.682 2.83-1.223 4.576-11.178-13.056-22.196-26.439-33.277-40.161 1.67-1.788 3.035-.544 4.388.334 1.393.905 2.54 2.12 3.746 3.26 1.856 1.753 3.299 4.982 6.362 3.819 3.342-1.268 2.791-4.88 3.082-7.793.066-.658-.12-1.367.054-1.983 2.917-10.39-1.686-18.214-8.38-25.492-1.977-2.15-4.137-4.348-5.004-7.716.031-.615.082-.858.319-1.423 3.985-1.291 5.51 1.942 7.228 4 6.15 7.366 12.746 14.343 18.753 21.828 3.722 4.64 7.74 9.04 11.151 13.935.935 1.341 2.35 2.418 1.495 4.568"/><path fill="currentColor" d="M511.73 510.798c3.305 6.187 8.074 10.855 11.97 16.16 2.99 4.073 3.897 8.003 2.66 12.986-.94 3.79-.338 7.937-.901 11.856-.28 1.95-.548 4.519-3.25 5.11-2.756.603-4.823-.59-6.47-2.75-2.226-2.92-4.813-5.44-8.532-7.077-1.83-.68-2.636-1.988-3.623-3.545-1.639-4.824-5.145-7.965-8.073-11.457-2.084-2.484-2.484-4.615-1.059-7.612 2.474-5.203 5.284-10.29 6.724-15.94.596-2.339 2.24-2.73 4.214-2.01 2.326.847 4.652 1.783 6.34 4.279"/><path fill="currentColor" d="M565.722 619.364c3.483.111 4.67-1.643 4.269-4.984-.589-4.908-1.082-9.828-1.645-14.739-.52-4.548 2.084-8.576 2.097-13.102.005-1.89.516-3.903.577-6.34 1.78-.68 2.601.602 3.571 1.721 4.511 5.203 8.705 10.677 13.43 15.698 1.266 1.346 2.174 2.89 1.879 5.214-2.492 3.324-3.022 6.573-1.505 10.113.97 2.265.975 4.585-.002 6.782-1.616 3.633-.734 7.206.162 10.716.652 2.55 2.046 4.908 1.116 7.698-.538 1.614.97 2.304 1.755 3.301 1.2 1.525 3.015 2.864 1.272 5.426-3.05 1.12-3.986-1.402-5.487-2.727-2.362-2.086-4.603-4.321-6.776-7.092-.165-.322-.382-.035-.269-.177-1.52-.888-2.569-2.252-3.558-3.968.032-.322-.043-.444-.096-.492-2.55-1.855-4.583-4.076-6.32-7.017-1.341-1.58-2.448-2.916-3.853-4.399-.374-.544-.451-.94-.617-1.632"/><path fill="currentColor" d="M425.736 388.933c.236.682.232 1.085.218 1.791-1.359 1.78-3.003 1.288-4.628 1.01-6.004-1.03-9.513 2.475-8.941 8.647.523 5.646 2.744 10.034 7.935 12.79 1.659.88 3.748 1.572 4.132 4.236-.21.545-.356.737-.831 1.081-3.122.431-5.492-.87-8.263-2.045-.955-.52-1.534-.96-2.514-1.451a17 17 0 0 1-1.27-.785c-10.297-5.538-21.309-7.075-32.262-8.817-1.33-.211-2.657-.323-3.445-2.014 2.876-1.727 5.942-2.115 9.047-2.46 2.475-.276 4.706-.945 3.437-4.394-.976-2.653.65-5.157.81-7.784.285-4.688-1.291-7.104-6.123-7.693-1.49-.182-2.983-.154-4.11-1.387 1.37-1.843 3.473.552 4.975-1.144 14.44 1.123 28.1 5.3 41.833 10.42"/><path fill="currentColor" d="M543.595 523.337c2.077-.431 3.082 1.047 4.395 2.012 4.174 3.066 6.25 2.559 7.763-2.407 1.626-5.338 2.912-10.796 4.038-16.265.588-2.858-.491-5.53-2.418-7.781-1.933-2.26-3.816-4.563-5.796-6.78-1.087-1.217-2.008-2.325-.083-3.91 5.925 6.608 11.597 13.395 17.375 20.502.607.722.602 1.355 1.045 2.077.222.193.12.206.116.154.181.242.4.507.865.89.212.149.127.156.126.114.19.242.409.503.865.89.206.153.127.155.127.116.197.235.412.494.847.892.2.155.147.146.16.122-.2 7.616-1.948 15.113-.553 22.98.441 2.483.279 6.601-1.159 9.772-1.863 4.11 2.194 7.45 1.68 11.835-2.77 1.021-3.449-1.394-4.819-2.855-1.904-2.032-3.463-4.333-5.433-6.745-.947-1.378-1.648-2.518-3.029-3.518-2.215-2.697-3.895-5.394-6.36-7.909-2.46-3.45-5.214-6.208-7.59-9.277-1.077-1.391-2.555-2.558-2.162-4.909"/><path fill="currentColor" d="M541.228 612.807c-.962 3.033 1.68 4.543 3.03 6.435 1.79 2.511 1.986 4.673.5 7.341-3.338 5.99-4.423 12.46-3.276 19.214.323 1.907-.168 3.482-1.518 4.433-1.979 1.395-2.844-.857-4.042-1.8-1.418-1.114-2.335-2.869-4.616-3.37-.346-.043-.309-.057-.31-.04-.188-.249-.41-.486-.847-.854-.182-.162-.143-.17-.148-.15-.144-.134-.283-.286-.606-.686-.902-1.036-1.62-1.824-2.49-2.894-.472-.877-.899-1.39-1.622-2.091-.536-.472-.829-.714-1.23-1.225-.854-1.412-1.418-2.69-2.804-3.776-.862-.805-1.467-1.384-2.163-2.269-.609-.946-.854-1.682-.785-2.886 4.37-6.284 4.986-13.614 7.588-20.178 1.475-3.72-.837-7.72-2.44-11.359-.787-1.786-2.19-3.36-1.592-5.827 6.199 4.209 9.655 10.974 15.067 16.389.21.705.395 1.07.92 1.579.248.19.174.186.18.15.167.242.37.49.767.887.155.183.212.175.197.2.725.748.882 1.858 1.927 2.708.265.152.284.086.313.069"/><path fill="currentColor" d="M447.727 456.373c.642-.332 1.09-.357 1.873-.399 1.37-.223 2.378-.018 3.22.521 11.63 7.45 23.11 15.091 32.363 26.068 9.54 8.11 8.893 19.838 11.47 30.143 1.093 4.368-2.17 8.832-4.28 12.91-.866 1.676-2.586 1-3.803-.125-2.062-1.91-4.022-3.924-6.237-6.234-6.874-5.228-11.736-12.03-18.353-17.01-5.763-4.339-11.11-9.228-16.806-14.181-.154-.709-.143-1.111-.11-1.816 2.504-2.15 4.376-.372 6.309.803 6.563 3.987 12.373 8.885 17.692 14.423 1.725 1.796 3.439 4.697 6.618 2.831 2.979-1.748 3.96-4.672 3.722-8.126-.473-6.904-4.456-12.034-8.58-17.025-4.362-5.278-9.753-9.461-15.387-13.307-3.43-2.34-6.602-4.985-9.8-8.105-.12-.58-.112-.822.09-1.37"/><path fill="currentColor" d="M522.005 590.238c.696 3.624 3.005 6.18 4.427 9.127 3.309 6.861-.27 12.463-2.278 18.373-1.173 3.45-.506 7.833-4.916 10.114-.67.499-1.09.647-1.863.396-.577-.447-.868-.69-1.256-1.205-.755-.92-1.016-1.844-1.9-2.74a69 69 0 0 1-3.245-3.846c-.722-1.295-1.618-2.045-2.56-3.206-.624-.688-1.025-1.113-1.482-1.835-1.344-3.412-.255-5.893 1.096-8.9 2.138-4.755 2.9-10.082 3.013-15.44.12-5.68 2.104-7.16 6.812-5.267 1.59 1.433 2.83 2.788 4.152 4.429"/><path fill="currentColor" d="M276.053 509.933c-.239.207-.373.315-.446.27-1.48.222-2.746.882-4.295 1.663-.228.272-.308.193-.268.227-.476.318-1.063.386-1.797.798-.186.223-.257.127-.219.17-.462.354-1.046.419-1.789.808-.198.21-.235.131-.213.17-.461.382-1.049.44-1.782.838-.192.215-.243.13-.218.17-.462.374-1.05.43-1.76.855-.173.23-.25.114-.221.177-.488.34-1.077.398-1.766.858-.152.246-.3.119-.232.19-.61.337-1.299.57-2.39.5-.544-.236-.736-.38-1.078-.849-.216-3.753 2.545-4.53 4.894-5.663 5.575-2.686 4.987-2.594 4.192-8.516-.724-5.391-3.449-9.023-7.162-12.752 3.846-4.957 9.172-6.575 15.101-7.576 3.976 2.406 7.891 3.865 12.174 4.224 1.801.151 3.727-.075 5.244 1.073 1.76 1.331 2.379 3.723-.074 4.104-6.961 1.081-4.152 4.923-2.933 8.477.214.624.433 1.245.6 2.256-.41 2.612-2.658 2.256-4.28 3.445-.264.266-.275.238-.276.243-1.48.617-3.127.73-4.72 1.823-.176.295-.223.182-.225.244-.553.244-1.132.32-1.873.726-.19.218-.255.135-.216.17-.497.4-1.155.423-1.972.877"/><path fill="currentColor" d="M482.053 519.318c3.311.18 4.585 3.263 6.847 5.096 1.584 1.285 2.993 2.155 3.091-.893.06-1.82 1.063-3.142 1.898-4.497 3.783-6.131-1.222-11.621-1.096-17.43.164-7.594-4.191-12.797-8.746-18.354 1.873-1.551 3.19-.267 4.353.832 7.107 6.712 14.67 12.945 21.274 20.187 1.232 1.351 2.489 2.7 2.463 5.043-.101.588-.112.824-.145 1.415-3.203-.441-5.598-3.095-8.974-3.433.06 3.358-1.963 6.012-3.083 8.961-1.61 4.24-5.835 8.324-4.969 12.397.822 3.868 5.328 6.901 8.003 10.46.734.978 2.624 1.994.81 3.958-7.457-7.684-14.597-15.54-21.726-23.742"/><path fill="currentColor" d="M254.941 470.16c-.752-.184-1.164-.4-1.799-.888.002-3.24 2.728-3.571 4.61-4.576 3.655-1.951 7.771-2.778 11.97-4.368.983-.382 1.645-.6 2.61-.964.517-.194.725-.263 1.246-.412 1.529-.296 2.805-.378 3.799-1.811.962-.837 1.826-1.064 3.099-1.116 5.45.456 9.867-1.817 14.76-3.692.572-.249.81-.336 1.418-.525 9.435-1.596 17.956-5.563 27.277-5.949 2.125-.088 4.244-.472 6.796-.382 4.673-1.086 8.956-.069 13.225-.067 7.767.004 15.389 1.671 23.076 2.593 1.76.212 3.64.475 4.908 2.48 3.076 3.032 7.508 1.57 10.838 4.307-8.14-1.052-16.458-2.65-24.843-3.728-24.019-3.09-47.334.785-70.316 7.562-10.99 3.24-21.83 6.901-32.674 11.537M275.396 483.127c-5.968.326-10.133 4.136-15.272 6.383-2.185 2.924-5.518 2.891-8.48 4.382-1.063.239-1.783.236-2.846-.023-.54-.266-.737-.41-1.025-.908 16.606-10.758 35.19-16.295 54.028-21.053 15.924-4.023 32.105-5.087 48.87-2.933-4.859 2.095-10.34.55-15.712 1.002-1.974.166-3.972.054-6.422.089-6.648 2.625-13.38 2.659-19.813 4.114-7.32 1.657-14.479 3.675-21.428 6.59-3.596 1.507-7.344 3.241-11.9 2.357"/><path fill="currentColor" d="M248.41 525.24c-5.439 4.262-11.276 5.093-17.185 1.678-5.107-2.952-7.112-7.81-6.302-13.554.762-5.408 3.721-9.46 9.004-12.088.565-.771 1.183-.746 1.731-1.266.087-.26.142-.263.148-.29.617-.105 1.225-.188 1.764-.8-.012-.307.061-.427.124-.459.573.088 1.075.059 1.954-.14.63.058.875.14 1.4.488.842 1.76.035 2.71-1.332 3.769-3.28 1.477-5.619 3.57-7.625 6.033-2.903 3.566-3.522 9.007-1.28 12.047 2.778 3.765 6.558 3.728 10.753 2.903 3.371-.663 5.42-3.894 9.251-3.924.675.521.9.958 1.049 1.825-.04.629-.093.878-.25 1.493-.105.367-.186.488-.253.519-.419-.213-.73-.18-1.047.453-.057.28-.096.322-.12.34-.648.146-1.305.185-1.784.973"/><path fill="currentColor" d="M285.453 506.137c-.05-1.972 1.872-1.905 3.272-3.007 1.033-2.066 2.675-2.86 4.394-3.488 9.207-3.368 18.787-5.017 28.487-6.083 1.324-.146 2.638.041 4.145 1.003 8.653.26 16.993.424 25.734 1.305.649.004.864.053 1.404.157.564.411.652.8.397 1.468-21.748-2.31-42.788-.175-63.256 7.177-1.396.502-2.796.993-4.577 1.468M356.669 376.244c-.448 2.514-2.57 1.79-4.247 1.752-10.857-.25-21.34 2.032-32.053 4.771-.617 1.27-1.333 2.032-2.331 2.226-8.238 1.599-16.365 3.7-24.944 5.202-.472-.475-.576-.739-.429-1.346 13.751-5.77 27.897-8.696 42.204-10.805 7.058-1.04 14.233-1.287 21.8-1.8"/><path fill="currentColor" d="M408.142 519.468c-.152-.773-.14-1.264-.107-2.123 11.956 6.938 22.807 15.648 33.007 25.19.808.756 1.293 1.857 1.944 3.15-5.005-2.035-8.345-6.512-12.615-9.842-7.186-5.605-14.538-10.965-22.229-16.375M408.398 488.209c-.284-.393-.274-.634-.196-1.233 4.89 1.632 9.497 4.007 13.785 7.515-5.134-.17-9.086-3.418-13.589-6.282"/><path fill="currentColor" d="M368.427 378.276c-1.48-.295-2.663-.083-3.434-1.566 4.235-.873 8.451.313 13.07.91-.496.355-1.331.434-2.58.552-2.443 1.31-4.568.006-7.056.104"/><path fill="currentColor" d="M447.18 550.245c3.815-.042 5.767 2.44 6.914 6.2-2.916-1.01-4.662-3.676-6.914-6.2"/><path fill="currentColor" d="M251.45 522.212c-.323-.657-.37-1.09-.43-1.852-.138-.557-.265-.787-.255-1.387 1.922-2.086 3.875-3.303 6.826-2.292.322.226.372.28.397.306.404.467.537.972.161 1.856-.263.315-.384.451-.472.424-.528-.094-.918.018-1.42.583-.163.276-.188.304-.172.314-.522.247-1.12.308-1.706.855-.056.287-.11.314-.135.332-.382-.067-.676.033-1.018.55-.112.23-.21.19-.173.227-.394.248-.85.331-1.603.084"/><path fill="currentColor" d="M383.174 455.314c2.902-.436 5.909-.05 8.67 2.327-2.675-.489-5.547-1.279-8.67-2.327"/><path fill="currentColor" d="M452.221 518.446c-2.4.586-3.533-.812-4.117-3.248 2.147-.223 3.328 1.09 4.117 3.248M521.032 633.426c1.969-.286 2.845.835 2.912 3.083-1.427-.265-2.226-1.449-2.912-3.083"/><path fill="currentColor" d="M280.513 508.217c.213-2.268 2-2.264 4.17-2.182-.661 1.488-2.367 1.59-4.17 2.182"/><path fill="currentColor" d="M353.493 497.8c-.39-.434-.382-.805-.326-1.448 1.486.205 2.925.682 4.572 1.412-1.143.202-2.495.152-4.246.037"/><path fill="currentColor" d="M508.198 617.305c1.509-.152 2.497.58 2.66 2.522-1.332-.058-2.213-.903-2.66-2.522"/><path fill="currentColor" d="M240.281 498.75c-.766.092-1.277.015-2.157-.192 1.04-1.024 2.446-1.92 4.16-2.915.532-.134.758-.167 1.096.122.106.774.019 1.209-.352 1.889-.345.408-.506.548-.957.811-.705.113-1.12.11-1.79.285"/><path fill="currentColor" d="M292.575 388.618c.368.14.394.391.457 1.02-.069.565-.174.753-.516 1.164-.596.472-.979.68-1.7.94-.985.195-1.631.126-2.489-.386-.239-.228-.427-.464-.523-.58 1.412-.76 2.92-1.403 4.771-2.158"/><path fill="currentColor" d="M271.442 512.152c.211-1.849 1.622-2.212 3.696-2.052-.592 1.205-1.896 1.764-3.696 2.052"/><path fill="currentColor" d="M513.991 624.376c1.338-.302 1.956.44 2.02 2.068-1.113.067-1.594-.81-2.02-2.068"/><path fill="currentColor" d="M541.15 612.575c-1.442.367-2.098-.408-2.152-2.17.971.11 1.698.834 2.151 2.17"/><path fill="currentColor" d="M258.22 519.124c-.303-.443-.273-.92-.225-1.754.797-.347 1.576-.337 2.738-.25-.47.708-1.326 1.339-2.513 2.004"/><path fill="currentColor" d="M517.095 628.345c.4-.313.808-.324 1.52-.335.326.692.349 1.384.375 2.418-1.065.025-1.574-.792-1.895-2.083"/><path fill="currentColor" d="M242.72 495.695c.721-.717 1.572-1.282 2.73-1.9.503.103.698.258.978.78-.21 1.993-1.276 2.32-3.014 1.798a4.5 4.5 0 0 1-.695-.678"/><path fill="currentColor" d="M425.163 496.477c-1.092.487-2.412.81-2.965-1.294 1.198-.438 2.001.267 2.965 1.294"/><path fill="currentColor" d="M563.944 640.7c-1.27.175-1.886-.59-1.963-2.209.986.084 1.66.809 1.963 2.209"/><path fill="currentColor" d="M525.08 638.399c.882-.238 1.602.062 1.696 1.437-.567-.173-1.11-.663-1.696-1.437"/><path fill="currentColor" d="M358.264 498.302c.906-.126 2.05.002 3.45.362-.901.119-2.057.006-3.45-.362"/><path fill="currentColor" d="M448.063 514.574c-.955.408-1.742.127-2.02-1.345.637.116 1.29.58 2.02 1.345"/><path fill="currentColor" d="M392.973 458.316c.694-.105 1.635.053 2.803.49-.7.11-1.628-.057-2.803-.49M254.612 521.297c-.238-.712.172-1.09 1.177-1.16-.088.408-.488.78-1.177 1.16M269.37 513.133c.157-.374.624-.729 1.402-1.045-.157.38-.625.721-1.402 1.045M251.236 522.328c.367-.326.795-.314 1.539-.232-.038.427-.391.784-1.006 1.183-.33-.175-.401-.394-.533-.95M248.707 525.484c-.27-.661.136-1.05 1.145-1.198-.078.371-.475.745-1.145 1.198"/><path fill="currentColor" d="M570.138 510.668c-.358-.141-.713-.593-1.115-1.342.34.146.73.589 1.115 1.342"/><path fill="currentColor" d="M276.155 510.156c.189-.38.719-.746 1.578-1.088-.192.383-.715.743-1.578 1.088M278.359 509.127c.172-.36.653-.698 1.444-.97-.172.374-.654.683-1.444.97M398.185 460.208c.348-.086.865.05 1.57.38-.342.076-.871-.041-1.57-.38M263.397 516.148c.144-.383.591-.75 1.346-1.089-.142.388-.592.747-1.346 1.09M265.359 515.114q.23-.57 1.38-1.065-.229.57-1.38 1.065M261.43 517.185c.138-.375.58-.748 1.332-1.082-.136.388-.583.736-1.333 1.082M237.288 498.653c.212.661-.202 1.003-1.172 1.065.098-.359.5-.692 1.172-1.065M235.466 499.798q-.095.525-1.02 1.187.097-.524 1.02-1.187M245.863 493.854c.35-.439.807-.766 1.54-1.17.277-.076.486.191.588.326.135 1.011-.382 1.355-1.487 1.313-.324-.132-.535-.357-.641-.469M267.348 514.097c.163-.366.632-.714 1.41-1.027-.162.372-.632.709-1.41 1.027M396.082 459.306c.415-.11.986.044 1.741.437-.405.102-.995-.035-1.74-.437"/><path fill="currentColor" d="M445.095 548.225c.276-.174.54.007.837.509-.194.064-.488-.095-.837-.509M444.085 547.23c.28-.178.546.001.845.506-.196.066-.492-.092-.845-.506"/><path fill="currentColor" d="M253.371 522.126c-.06-.256.137-.519.591-.77.06.263-.137.514-.59.77M250.477 524.168c-.18-.314.007-.554.579-.672.15.322-.05.53-.579.672"/><path fill="currentColor" d="M571.056 511.691c-.23.08-.51-.125-.91-.567.207-.064.533.108.91.567"/><path fill="currentColor" d="M256.411 520.116c-.027-.271.263-.553.866-.855.026.268-.261.556-.866.855"/><path fill="currentColor" d="M572.019 512.714c-.204.065-.48-.142-.878-.581.188-.052.496.128.878.58M572.985 513.733c-.196.055-.466-.153-.854-.593.182-.044.48.143.854.593"/><path fill="currentColor" d="M360.775 376.267c-.015.147-.305.23-.71.186.068-.167.252-.209.71-.186"/><path fill="currentColor" d="M538.02 608.677c-.218.017-.509-.273-.883-.868.213-.017.512.273.883.868M530.05 644.251c.234-.12.495.08.824.57-.165.038-.453-.142-.824-.57M529.245 643.305c.217-.085.417.105.659.54-.234.143-.473-.026-.659-.54M538.887 609.757c-.24.102-.479-.117-.758-.626.166-.027.432.171.758.626"/><path fill="currentColor" d="M560.851 636.787c-.192.092-.416-.085-.732-.477.223-.192.489-.052.732.477"/><path fill="currentColor" d="M446.101 549.22c.265-.176.527-.007.84.466-.186.069-.484-.073-.84-.466"/><path fill="currentColor" d="M561.81 637.79c-.205.079-.416-.113-.708-.524.23-.164.49-.007.707.523"/><path fill="currentColor" d="M832.884 697.864c-2.545-1.093-3.908 1.053-6.048 1.294-3.555.777-6.855 1.153-10.124 1.706-1.368.231-2.657-.107-3.57-1.284-1.04-1.34-.25-2.34.453-3.565 3.119-5.43 1.23-11.27-4.291-13.61-1.07-.452-2.368-.717-2.598-2.041-.305-1.758 1.178-2.248 2.412-2.643 1.116-.357 1.577-1.105 2.067-2.406 3.96-3.621 9.14-4.173 13.43-7.21.205-.307.233-.303.231-.319 9.306.676 10.718 2.5 10.313 11.923-.152 3.56 1.336 7.107.833 10.746-.365 2.64.128 5.632-3.108 7.409"/><path fill="currentColor" d="M838.754 640.09c-.449.655-1.26 1.283-2.384 1.952-.265-1.478.594-2.055 2.384-1.951M835.758 642.087c-.143.338-.607.7-1.36 1.148.153-.318.596-.72 1.36-1.148"/><path fill="currentColor" d="M709.767 664.192c-.385-.082-.295.037-.354.083-5.6-2.073-11.285-3.777-17.2-5.999-.356-.16-.248-.19-.243-.135-.577-.936-1.612-.53-2.747-.907-.3-.167-.235-.214-.243-.175-.386-.507-1.005-.554-1.842-.839-.271-.126-.178-.163-.167-.114-.594-.885-1.603-.5-2.726-.872-.291-.17-.274-.234-.292-.204-.872-1.115-2.112-1.464-3.722-1.797-.284-.164-.266-.231-.284-.199-.449-.512-.952-.99-1.644-1.762-.422-3.746-2.496-6.687-2.473-10.37.028-4.492 2.587-8.018 3.43-12.15.353-1.725 2.007-3.066 4.294-2.075 1.7.736 3.236-.172 5.176-.75.375-.091.335-.052.35-.07.35.584 1.015.474 1.773.851.24.17.242.189.255.192 2.105 3.655 6.16 4.204 9.476 5.823 6.834 3.336 14.055 5.656 21.878 7.29 1.003.507 1.62.999 2.413 1.728.437 1.647.255 3.324-.949 3.833-7.472 3.159-7.22 10.623-9.555 16.643-.304.783-.65 1.527-1.62 2.269-1.142.314-1.871.06-2.984-.294"/><path fill="currentColor" d="M713.274 664.311c.235-4.028-.013-7.938 2.806-10.967.112-.121.32-.307.29-.384-2.53-6.278 3.323-5.857 6.229-7.727 1.097-.706 1.28-1.872 2.183-3.03.27-.224.731-.218.962-.211.946.756 1.92.407 3.042.797.726.404 1.168.633 1.626.823 2.396.997 5.448-.61 7.467 1.838 3.474 4.212 5.701 9.167 7.577 14.178.772 2.064-.953 3.856-3.544 4.396-5.625 1.173-11.148 3.159-16.995 1.082-.663-.235-1.579.24-2.65.663-3.453 1.97-6.02-.052-8.993-1.458"/><path fill="currentColor" d="M712.57 663.99c3.216.53 5.718 2.108 9.03 2.044 10.369 2.033 20.37 3.652 30.605 2.411 1.633-.198 3.28-.284 5.359-.411.786.364.927.787.654 1.565-15.761 1.31-31.131.15-46.274-3.626-.77-.192-1.447-.758-2.365-1.507.713-.393 1.624-.431 2.99-.477"/><path fill="currentColor" d="M758.398 669.865c-.392-.389-.396-.798-.398-1.514 2.138-.21 4.273-.114 6.705.237-1.775.588-3.847.922-6.307 1.277M770.76 667.612c-1.108.493-2.492.73-4.299.97.546-2.263 2.305-1.673 4.3-.97"/><path fill="currentColor" d="M728.831 642.735q-.97.13-2.629-.486.97-.13 2.63.486"/><path fill="currentColor" d="M790.008 662.579c-.73.334-1.475.437-2.608.536.064-.969.923-1.148 2.198-1.201.338-.026.393.434.41.665"/><path fill="currentColor" d="M733.726 735.376c13.95-1.244 27.347-4.041 40.776-8.575-.195 2.006.483 2.065 2.293 1.333 7.499-3.033 15.13-5.752 22.55-8.96 2.316-1.002 4.556-1.083 6.72-.76 2.268.338 5.063.16 6.248 3.172 1.151 2.925-1.446 3.733-2.685 5.255-3.3 4.057-2.688 5.916 3.071 7.97-6.241 5.821-12.286 11.402-21.268 12.425-2.658.303-3.614 4.257-7.079 4.627-.504.272-.682.398-1.126.334-1.044.06-1.822.308-2.883.688-2.825-1.912-5.648-3.227-8.944-3.6-1.28-.144-2.858-.658-2.697-2.372.186-1.975 1.953-1.95 3.442-2.083.496-.045.997.061 1.495.083 1.751.076 3.89.99 4.797-1.34.962-2.467-.715-4.134-2.422-5.513-4.589-3.703-9.981-4.373-15.597-3.68-5.452.672-10.67 2.654-16.576 3.056-8.132.793-15.87 1.758-24.046.452-.892-.545-1.146-1.03-.951-2.032 4.562-.446 8.928-.507 13.761-.524.467.043.906.097 1.12.044"/><path fill="currentColor" d="M743.792 736.314c6.042-1.42 11.827-2.796 17.69-3.58 6.08-.813 11.814.49 16.485 4.792 2.144 1.974 3.71 4.199 2.184 7.439-1.588 3.371-4.082 1.81-6.38 1.433-1.409-.231-2.837-.929-4.578.93 2.988.604 5.613 1.643 8.192 1.538 3.771-.153 2.666 1.824 2.447 3.953-.1.76-.43 1.327-.922 2.183-.164.292-.299.213-.317.138-.718.082-1.39.35-2.335.734-.233.273-.151.214-.118.251-1.855-.319-3.63.145-5.765.86-2.225.534-4.063 1.003-6.15 1.722-3.493.295-6.782.07-9.948 2.155-.21.316-.24.257-.217.233-5.559.292-11.029 1.627-17.026 1.715-2.841-2.652-.72-3.48 1.251-4.1 2.694-.846 5.525-1.06 8.322-1.407 2.496-.31 4.517-1.222 4.612-4.207.087-2.708-.488-4.973-3.616-5.627-2.733-.571-4.118-2.24-3.414-5.011.534-2.099-.864-3.855-.397-6.144"/><path fill="currentColor" d="M825.152 703.167c-.106-.139.197-.397.392-.434.177.28.331.73-.392.434"/><path fill="currentColor" d="M783.063 752.164c.074-.158.252-.158.696-.157-.02.106-.307.21-.697.157"/><path fill="currentColor" d="M828.907 700.77c-.014-.202.27-.486.846-.868.013.196-.268.49-.846.867M826.03 702.734q-.054-.314.745-.9.055.314-.745.9"/><path fill="currentColor" d="M653.003 636.541c-8.397-5.086-15.702-11.927-23.71-18.406-1.746-2.108-4.484-3.121-4.42-6.296 1.008-.67 1.93-.974 2.614-.54 4.313 2.746 5.085.171 5.764-3.443 1.18-6.278 1.786-12.7 4.479-18.962.756-.463 1.253-.51 2.115-.24.35.163.298.25.284.201.099.298.288.593.818.925.25.096.158.115.164.068.118.307.315.605.86.921.262.076.158.097.168.045.091.32.272.634.839.95.27.072.182.036.218.004.256.805.94 1.256 1.844 1.802.3.03.34.04.362.036-1.558 4.212 2.84 5.936 4.074 9.005 2.437 6.06 2.2 12.24.815 17.788-1.32 5.288-.805 9.25 1.939 13.464.427.656.516 1.533.773 2.678"/><path fill="currentColor" d="M674.906 650.478c-1.265-.375-2.527-1.125-4.006-2.113 1.454-.14 3.575-1.007 4.006 2.113M677.733 651.01c1.212.158 1.912.51 2.163 1.749-1.196-.16-2.425-.626-3.831-1.375.315-.306.807-.33 1.668-.374"/><path fill="currentColor" d="M586.829 572.27c-1.57-9.304 1.645-18.11 1.43-27.084-.043-1.772 1.3-2.781 3.06-3.46 2-.77 2.701.418 3.558 1.65 7.459 10.735 17.918 18.588 26.997 28.223-1.212 3.397-1.299 6.696-1.284 10.023.03 6.758-2.275 12.912-5.29 19.203-3.023 1.669-5.013.118-6.88-1.507-4.437-3.86-8.713-7.894-12.74-12.65a12 12 0 0 1-.839-1.725c-.188-.44-.262-.612-.46-1.024-.213-.39-.303-.54-.698-1.094a13 13 0 0 0-.98-1.133q-.511-.534-1.041-1.06c-.473-.47-.594-.588-1.087-1.067-.5-.484-.63-.609-1.142-1.132-.507-.547-.628-.695-.916-1.084a10 10 0 0 1-.59-1.033c-.455-1.457-1.3-2.474-1.098-4.046"/><path fill="currentColor" d="M613.553 602.54c3.245-7.987 6.026-15.849 5.478-24.535-.136-2.165-.852-4.846 2.626-6.024 4.618 3.763 8.843 7.622 13.248 11.77.348.446.518.602.975.952.287.193.17.21.215.172.728 1.09 1.65 2.088 1.938 3.766-1.423 8.415-2.78 16.512-4.329 24.57-.407 2.12-1.653 3.384-3.742 1.236-1.414-1.454-2.865-2.815-5.578-2.05-1.271-.164-2.026-.655-3.119-1.185-.544-.367-.789-.572-1.138-1.014-1.238-1.453-2.681-2.383-3.743-4.082-.437-.766-.694-1.288-1.259-1.944-.626-.577-1.043-.963-1.572-1.631"/><path fill="currentColor" d="M580.93 567.673c-2.853-1.542-4.48-4.582-6.965-7.25 4.101.246 6.372 2.739 6.964 7.25M588.876 576.749c-1.79-.622-2.81-2.286-4.048-4.125.415-.394.911-.486 1.784-.6 1.073 1.417 2.617 2.486 2.264 4.725M581.822 568.842c-.186.058-.467-.108-.817-.518.263-.164.527.015.817.518"/><path fill="currentColor" d="M636.052 584.606c-.215.237-.494.088-.844-.362-.125-.203.071-.242.16-.284.25.09.409.224.684.646"/><path fill="currentColor" d="M584.718 571.966q-.334.105-.841-.551.333-.106.84.551M582.796 569.9c-.194.05-.466-.135-.801-.57.28-.163.541.03.8.57M583.765 570.926q-.313.097-.838-.552.313-.097.838.552"/><path fill="currentColor" d="M623.001 698.905c8.938 5.805 17.868 11.185 27.13 16.674-2.057 2.978-2.914 5.968-2.055 9.525.925 3.825.242 7.164-3.201 9.758-3.185 2.399-2.49 5.738-1.702 9.27-9.368-3.71-17.96-8.67-26.341-14.632-3.456-4.106-2.09-7.98-.585-12.03 1.706-4.595 1.45-9.76 3.995-14.16.814-1.408 1.115-3.108 2.76-4.405"/><path fill="currentColor" d="M592.555 671.997c6.283 4.119 10.774 9.77 16.39 14.652-3.595 6.34-5.041 12.856-4.406 19.972.28 3.142.477 6.215 1.644 9.188.662 1.686 1.112 3.476.112 5.612-2.525-1.384-4.781-3.076-7.2-5.056-.338-.57-.548-.826-1.017-1.156-.226-.102-.128-.152-.154-.103-.159-.282-.36-.563-.882-.867-.253-.072-.157-.079-.174-.034-.224-.616-.813-.69-1.574-1.023-.215-.192-.292-.18-.297-.22-.177-.188-.347-.338-.788-.697-.269-.209-.209-.265-.236-.234a3.8 3.8 0 0 0-.862-.838c-.208-.128-.127-.176-.15-.135a3.3 3.3 0 0 0-.895-.846c-.235-.098-.145-.129-.16-.083-.138-.296-.338-.585-.862-.906-.257-.076-.301-.042-.328-.03-.091-3.28-2.38-5.294-4.435-7.35-1.794-1.794-2.078-3.521-1.853-6.14.526-6.123-.213-12.287 1.375-18.425.958-3.7 2.573-5.501 6.752-5.281"/><path fill="currentColor" d="M643.179 744.641c-3.444-6.226-3.198-6.897 2.575-12.277 2.258-2.103 1.095-4.867.759-7.458-.443-3.412-2.108-7.371 3.437-9.003 5.168 2.145 9.923 4.343 14.895 6.818.615.77 1.221.774 2.036 1.02.274.09.186.136.195.087 1.29 1.004 2.837 1.407 4.737 1.874.332.116.28.059.313.038.21.618.687.757 1.522.623.807.013 1.36.125 2.101.458.205.738.088 1.222-.42 1.948-2.231 1.268-4.165.377-6.116.143-5.209-.624-9.69 2.163-11.744 7.297-1.788 4.467-.715 7.539 4.255 10.914 6.336 4.302 14.014 5.062 21.011 7.632 3.036 1.114 6.716.82 8.905 4.324.004.614-.045.858-.312 1.406-16.804-2.942-32.663-8.368-48.149-15.844"/><path fill="currentColor" d="M606.252 721.994c-2.352-7.236-3.656-14.247-3.394-21.658.188-5.329 1.114-9.814 5.962-13.185 4.125 2.916 7.969 6.036 11.984 9.435.363.583.595.852 1.123 1.18.25.098.14.12.175.076.135.313.324.613.869.906.267.05.323.012.358.013-2.939 7.242-3.721 15.222-6.819 22.287-1.512 3.45 1.146 5.196.408 7.968-3.664-2.125-7.053-4.441-10.666-7.022"/><path fill="currentColor" d="M691.51 760.877c-.4-.088-.428-.503-.433-.71.423-.585.893-.899 1.816-1.266.695-.14.978-.162 1.687-.168 8.088 1.814 15.99 1.144 24.122 2.362 2.247.615 4.138.424 6.409.43 1.428-.167 2.467-.09 3.886-.069 1.15.04 1.891-.107 2.995-.43 1.433-.212 2.449-.132 3.682.695 6.083.831 11.706-1.39 17.947-.666-3.87 1.66-8.479 1.953-12.993 2.378-16.341 1.539-32.612.956-49.119-2.556"/><path fill="currentColor" d="M595.19 713.262c.415-.042.94.188 1.563.703-.42.046-.936-.193-1.563-.703M590.867 709.41c.226-.09.533.081.932.508-.221.089-.536-.078-.932-.507M597.931 715.36c.21-.084.499.085.895.485-.2.077-.507-.077-.895-.485M596.869 714.427c.225-.097.53.065.932.478-.22.093-.536-.063-.932-.478M594.025 712.291c.238-.173.506-.017.843.432-.239.219-.533.086-.843-.432M591.915 710.37c.213-.087.51.083.914.49-.205.082-.518-.076-.914-.49M592.984 711.315c.197-.07.475.109.858.518-.19.063-.484-.102-.858-.518"/><path fill="currentColor" d="M804.069 677.032c.64-.839 1.525-1.32 2.667-1.966 6.258-1.77 11.678-4.79 17.727-7.208-.42 3.34-3.918 2.842-6.045 4.301-1.707 1.172-3.841 1.72-6.105 2.708-2.41 2.475-4.823 3.744-8.244 2.165"/><path fill="currentColor" d="M776.396 756.145c.232-.352.834-.705 1.808-1.07-.232.349-.834.709-1.808 1.07"/><path fill="currentColor" d="M691.02 626.682c-.498.031-1.069-.133-1.783-.57.5-.13 1.313-.47 1.784.57M638.398 588.963c-1.83-.66-2.436-1.825-2.283-3.767 1.3.769 2.573 1.897 3.964 3.323-.363.343-.842.389-1.68.444M645.229 593.33c-.938.518-1.795.41-2.01-1.233.641.08 1.27.521 2.01 1.233M641.116 589.613c-.214.074-.509-.115-.903-.555.208-.07.514.111.903.555M642.148 590.582c-.219.083-.523-.096-.929-.528.214-.08.528.092.929.528M643.169 591.568c-.227.084-.534-.1-.93-.545.223-.082.537.097.93.545"/><path fill="currentColor" d="M463.651 532.869c.85.055 1.297.085 2.08.146.802.517 1.28.994 2.015 1.686 5.812 3.046 8.706 8.654 13.264 12.936.553 7.788-1.014 15.14-1.078 22.59-.03 3.478-2.808 4.602-6.548 3.022-2.299-2.35-4.215-4.485-6.294-6.907-.766-1.153-1.701-1.528-2.843-2.132-1.494-1.031-1.86-2.89-3.947-3.251-5.017-6.648-6.016-13.433-4.908-21.73.955-7.147.39-8.38 8.26-6.36"/><path fill="currentColor" d="M292.057 390.6c.19-.391.352-.434.763-.531 8.612-3.849 17.66-4.961 26.916-6.895 11.011-.26 13.486 2.47 12.73 13.575-.08 1.182.549 1.962 1.328 2.489 3.282 2.22.78 3.558-.752 5.403-.418 1.587-1.333 2.368-2.532 2.504-12.571 1.432-24.296 6.054-36.687 9.477-2.818-2.905-.366-4.81 1.224-6.34 3.43-3.303 6.585-6.43 5.754-11.847-.32-2.08 1.432-3.614 2.9-5.02.716-.685 1.582-1.517 1.016-2.562-.578-1.07-1.762-.66-2.722-.527-2.789.388-5.349 1.974-8.282 1.598-.68-.087-1.249-.43-1.656-1.324"/><path fill="currentColor" d="M292.693 415.886c12.956-5.06 26.08-8.483 39.924-10.748 9.312-1.079 18.28-1.891 27.22-2.931 5.142-.598 10.15.262 15.62.789 6.969 1.357 13.48 2.952 20.077 4.026 6.12.996 11.623 3.379 17.188 6.528-1.755 2.344-3.907 1.147-5.826.434-17.429-6.48-35.563-8.72-53.903-7.309-18.549 1.427-36.837 4.914-54.417 12.717-.6.305-.836.427-1.44.69-8.748 2.937-15.978 8.04-23.851 11.855-1.451.703-2.75 1.944-4.916 1.373-1.7-2.201-.309-3.463.98-4.676 1.287-1.21 2.995-1.848 4.604-3.26 5.822-4.344 11.717-7.775 18.74-9.488"/><path fill="currentColor" d="M368.26 378.35c1.805-.248 3.865-.254 6.367-.2-1.538 3.706-3.945-.004-6.367.2"/><path fill="currentColor" d="M363.594 423.396c6.155.854 11.867 1.792 17.974 2.867.077 2.928.832 4.766 3.863 5.808 4.035 1.387 7.34 4.447 11.596 5.518.934.235 1.899.901 1.674 2.14-.176.972-1.041 1.261-1.91 1.227-6.213-.247-8.178 5.138-10.424 9.001-1.384 2.38-2.038 2.513-4.173 2.138-3.092-.545-6.24-.771-9.804-1.16-13.688-3.03-27.098-4.407-41.063-3.99-3.404-2.29-1.36-3.938.668-4.716 5.985-2.298 4.78-8.26 6.695-12.58.647-1.46-1.182-1.687-2.341-1.675-3.338.034-6.675.243-9.919 1.065-8.669 2.197-17.437 2.377-26.274 1.474-1.499-.153-3.005-.23-4.236-1.791 4.041-2.924 8.813-2.822 13.314-3.556 14.245-2.325 28.592-3.303 43.052-2.75 3.67.141 7.196 1.261 11.308.98"/><path fill="currentColor" d="M447.634 456.803c8.64 6.724 17.887 12.054 24.986 20.036 4.623 5.198 9.109 10.489 10.118 17.785.398 2.876.51 5.624-1.206 8.16-3.464 5.122-6.011 5.521-10.194.983-5.77-6.26-12.468-11.336-19.4-16.16-1.232-.858-2.56-1.568-4.49-1.637-1.31-1.14-2.255-2.26-3.349-3.655-4.134-3.476-6.174-7.022-3.283-12.209 1.002-1.797-.238-4.215-.065-6.363.413-5.1 2.3-7.178 6.883-6.94"/><path fill="currentColor" d="M447.963 456.797c-4.406.77-6.795 4.495-5.599 9.58.604 2.566.86 4.64-1.017 6.917-3.066 3.717 2.15 5.192 2.583 8.391-6.001-2.15-10.797-6.49-16.044-10.181-5.849-4.114-5.263-15.576-1.5-20.7 1.276-1.736 3.399-2.521 5.309-1.27 4.786 3.136 10.49 3.904 15.87 6.454.356.078.4.565.398.81"/><path fill="currentColor" d="M397.235 431.133c2.797-.595 5.32.93 8.358 1.956-2.87 1.34-5.464-.413-8.358-1.956M391.08 429.09c1.867-.367 3.777.279 5.816 1.5-1.93.573-3.896.212-5.816-1.5M385.235 427.519c1.547.043 3.167.452 5.05 1.135-1.503.019-3.54 1.13-5.05-1.135"/><path fill="currentColor" d="M215.157 489.692c-8.91 8.24-17.712 16.148-26.81 24.215-7.236.378-7.236.378-8.097 8.897-2.7 7.453-7.305 13.44-11.31 19.757-.851 1.344-2.196 2.538-4.45 2.512-2.404 1.455-4.569.757-7.143.174-.85-.202-1.274-.208-2.015-.236-.528-.265-.763-.48-1.204-.826-3.97-2.79-5.345-8.278-3.724-12.885 3.366-9.568 9.429-17.58 15.02-25.808 1.606-2.364 1.723-4.884 2.73-7.244 2.649-6.208 6.94-11.273 11.016-16.365 7.21-9.01 13.424-18.885 22.464-26.787 4.183-2.008 7.615-.06 10.417 1.925 6.347 4.497 11.837 9.965 15.096 17.267.89 1.993 1.643 3.99.126 6.428-.238.317-.706.361-.941.363-2.13 1.315-3.94 2.761-5.853 4.026-4.531 2.992-6.793 1.799-7.063-3.528-.102.2 1.445 6.716 1.741 8.115"/><path fill="currentColor" d="M227.385 480.986c.139-6.38-3.816-11.168-7.555-15.204-4.555-4.916-9.623-10.063-17.506-10.819 6.79-7.334 13.953-14.658 21.189-21.909.63-.632 1.746-.779 2.995-1.176 10.968 7.238 20.481 2.68 29.69-2.634-2.179-4.82-1.969-11.072-8.067-13.962-.043-1.127.261-1.82 1.14-2.183 4.55-1.884 8.944-4.063 13.266-7.083 1.654-.813 3.024-1.476 4.461-1.832 2.975-.737 5.279.307 5 3.583-.524 6.15 1.045 11.82 3.107 17.86-1.44 3.392-6.293 2.926-6.72 7.338.08.351.03.532-.048.582-.763-.201-1.38-.111-1.78.712.357.45-.606.8.219.816.265.005.532-.13 1.013-.167.55.38.952.615 1.753.862 4.16 2.95 4.688 4.552 1.578 7.567-5.439 5.27-9.541 11.927-16.623 15.548-4.12 2.106-5.273 6.66-7.28 10.85-2.396.2-2.099 3.62-4.829 3.256-1.559 1.226-3.134 1.625-5.066 2.035-3.427 1.995-6.507 3.954-9.937 5.96"/><path fill="currentColor" d="M247.364 470.008c-1.389-5.603 1.763-9.97 5.796-12.1 7.236-3.822 11.154-10.712 17.035-15.659 3.122-2.626 1.794-3.99-.937-5.8-.2-.693.001-1.04.396-1.587.003-.319.145-.291.144-.219 2.801-.226 5.334-1.522 8.437-2.137 1.819-.447 2.985-1.652 5.001-1.55 1.132-.198 1.827-.525 2.928-.843 1.911-.17 3.446-.726 5.298.166 1.958 3.31 1.96 7.329 5.47 9.439.57.341.851 1.314.528 1.787-2.394 3.505-.163 7.368-1.168 11.265-.21.291-.24.285-.254.294-4.739 1.455-9.387 3.176-14.674 4.054-1.215.206-2.044.355-3.098.73-1.216 1.137-2.405 1.58-3.975 1.925-.42.222-.591.24-1.018.27-.696.41-1.273.433-2.025.75-5.863 3.218-12.462 4.027-18.081 7.957-1.971.59-3.694.928-5.803 1.258M275.478 425.867c-3.673-1.11-3.914-5.04-4.56-7.272-.679-2.353-1.69-5.752-.689-8.616 1.808-5.17-.437-5.523-4.51-4.131-.604.206-1.316.1-2.4.127 5.23-5.75 13.042-7.37 20.282-10.848 2.35-1.604 4.629-2.578 7.138-3.828.39-.521.595-.76 1.111-.99 3.891 1.873 6.819-1.23 10.16-1.612 2.097-.24 4.127-.974 5.163 1.264 1.022 2.205-1.162 3.551-2.428 4.794-.883.869-2.927 1.29-2.531 2.643 2.448 8.363-4.64 11.624-8.552 16.59-.294.374-.392.9-.611 1.712-5.657 3.8-11.976 6.004-17.573 10.167"/><path fill="currentColor" d="M247.667 415.19c4.557.178 8.333 3.59 8.186 8.005-.119 3.607 1.277 5.068 4.761 5.677-8.832 4.005-16.812 9.977-27.12 7.99-2.618-.506-5.084-1.61-6.456-4.679.067-2.776 2.309-3.182 3.85-4.333 5.524-4.127 11.01-8.305 16.779-12.66"/><path fill="currentColor" d="M215.358 489.881c-1.681-1.698-2.854-3.648-4.547-5.3-1.657-1.617-.595-3.358.914-4.673 1.399-1.219 2.728-.887 3.938.337.578.584 1.21 1.199.731 2.126-.481.933-3.24.883-1.45 2.722 1.57 1.612 2.985-.348 4.452-.802 2.2-.681 3.248-3.472 6.322-3.23-1.815 4.452-6.33 6.087-10.36 8.82M180.396 523.053c-.691-1.265-1.178-2.532-1.33-3.839-.619-5.282 3.058-7.712 8.75-5.419-.793 4.403-3.454 7.205-7.42 9.258"/><path fill="currentColor" d="M290.636 391.07c-.732 2.968-3.864 2.56-6.34 3.878-.207-2.34 2.518-1.756 3.612-3.54.908-.304 1.636-.328 2.728-.338"/><path fill="currentColor" d="M157.162 545.323c1.858-.281 3.958-.29 6.512-.27-1.53 3.551-3.926 1.706-6.512.27"/><path fill="currentColor" d="M237.202 475.288c.91-1.577 2.658-1.586 4.477-2.25-.23 2.544-2.297 2.407-4.477 2.25"/><path fill="currentColor" d="M154.071 544.243q.308-.188.819.532-.31.19-.819-.532"/><path fill="currentColor" d="M520.387 493.005c-1.505-3.473-2.457-6.706 1.117-9.564 1.171-.937.223-2.824-.325-4.234-.98-2.514-1.271-5.113-1.226-7.817.105-6.245.762-6.99 7.59-7.36 6.136 7.589 4.697 16.11 3.805 24.617-.284 2.71.303 5.504.086 8.228-.106 1.335-.311 3.204-2.049 3.683-1.529.42-2.224-1.133-3.242-1.906-2.092-1.588-2.51-4.793-5.756-5.647"/><path fill="currentColor" d="M540.975 519.603c-.338-.122-.741-.554-1.254-1.272.323.13.756.546 1.254 1.272M542.88 521.89c-.175.033-.467-.176-.855-.64.182-.038.46.18.855.64"/><path fill="currentColor" d="M326.238 494.633c-12.71 1.033-24.929 3.281-36.966 8.132-2.535-2.356-2.82-5.646-3.892-8.546-1.256-3.4 1.658-3.085 3.815-3.245 1.179-.087 3.155.644 3.15-1.312-.006-1.604-1.935-1.968-3.129-1.587-4.599 1.466-8.27-2.865-12.78-1.927-.269.056-.895-1.606-1.389-2.805 12.975-4.07 25.324-10.051 38.91-11.81 4.403-.57 8.824-1.005 13.676-1.474.824.805 2.697 1.911-.036 1.977-1.29.03-3.262-.576-3.707.581-.744 1.937-.734 4.197-.826 6.33-.031.727.984 1.565.847 2.208-.981 4.608-.942 8.822 3.577 11.719-.356.508-.712 1.017-1.25 1.759"/><path fill="currentColor" d="M473.149 573.328c4.364.014 5.865-.97 5.378-6.455-.53-5.959-.236-12.423 2.271-18.64 5.639 1.799 8.293 6.723 10.809 11.11 3.3 5.753 5.36 12.252 3.35 19.23-1.898 6.59-6.273 8.073-11.891 4.179-3.73-2.586-6.69-5.898-9.917-9.424M464.154 564.304c1-.247 2.243-.426 2.737 1.405-1.07.266-1.975-.174-2.737-1.405"/><path fill="currentColor" d="M467.945 534.63c-.827.25-1.549-.024-1.842-1.279.829-.241 1.527.061 1.842 1.278M424.335 418.106c-2.523-3.402-6.198-4.706-9.188-6.858-4.524-3.256-6.334-16.83-.357-20.997 1.451-1.012 2.878-1.276 4.64-.622 1.829.678 3.81.944 6.12 1.394 9.816 3.686 19.257 7.325 28.127 12.993.517.212.678.36 1.07.739.23.233.254.24.257.253.429.526 1.038 1.11.927 1.725-1.195 6.65-.203 13.95-5.994 19.525-3.702 1.217-6.338-1.963-9.982-1.382-5.6-1.625-10.35-4.383-15.62-6.77"/><path fill="currentColor" d="M448.885 426.35c2.324-3.275 4.33-5.91 3.704-10.312-.457-3.212 3.197-6.337 2.412-10.6 8.628 3.87 16.562 9.118 23.497 15.874 1.739 1.694 4.055 2.795 6.32 4.439 4.384 5.712 5.463 11.525 2.438 17.895a14.5 14.5 0 0 0-1.419 6.737c.076 2.407-1.091 3.714-3.938 3.737-3.675-1.4-5.591-4.882-9.495-5.958-.283-.25-.353-.2-.351-.243-.186-.171-.373-.3-.776-.691-.554-.337-.82-.515-1.11-1.025-.328-1.118-1.083-1.64-1.786-2.598-.818-1.47-1.77-2.278-3.402-2.763-1.134-.538-1.844-1.099-2.658-2.063-1.308-2.915-3.335-4.523-6.304-5.553a8 8 0 0 1-1.228-.606c-2.142-2.16-5.143-2.993-5.904-6.27"/><path fill="currentColor" d="M480.895 453.325c2.065-.425 4.505.178 3.34-3.373-.374-1.141-.26-2.833.347-3.84 3.862-6.405 3.264-12.812.446-19.703 6.144 3.747 12.135 8.077 17.293 13.433 3.788 3.935 1.697 9.089 2.633 13.622.527 2.553-.236 5.256.663 7.875.65 1.89 2.213 4.091-.368 5.786-2.325 1.528-4.96 1.392-7.033-.126-3.585-2.623-7.756-4.451-10.73-7.941-1.25-1.467-2.513-3.205-5.241-2.97-.374.05-.334.036-.34.028-.371-.843-.946-1.58-1.01-2.791"/><path fill="currentColor" d="M454.87 404.788q-.276.144-.728-.512.293-.17.728.512"/><path fill="currentColor" d="M589.123 602.664c2.3.644 3.29 2.696 4.924 4.537.134.723.28 1.099.862 1.544.288.127.192.152.21.106.113.31.308.597.852.918.913.833 1.579 1.563 2.276 2.66 3.188 2.23 4.921 5.498 7.625 8.243 1.42 2.185 2.417 3.852-.006 5.864-1.878 1.558-2.245 4.092-1.914 6.44.998 7.088.441 14.274 1.487 21.356.246 1.67 1.026 3.824-2.27 3.95-4.432-3.067-7.582-6.908-11.186-10.723.11-.9.688-1.981.583-2.052-5.061-3.431-3.483-9.36-5.184-14.017-1.314-3.6-2.904-7.452-.579-11.525 1.327-2.325 1.047-4.687-.148-7.48-1.32-3.083-2.174-7.193 2.468-9.82"/><path fill="currentColor" d="M462.716 437.72c.84.752 1.448 1.277 2.246 2.04.455.662.554 1.117.252 1.907-3.747-.45-6.06-3.232-8.899-5.093-10.515-6.892-21.765-12.39-33.196-18.235-.011-.311.189-.349.686-.456 5.653 1.259 10.595 3.62 15.888 6.06 6.052.816 9.93 5.055 14.998 7.77.449.247.62.27 1.05.323 2.169 2.136 4.937 3.22 6.975 5.683"/><path fill="currentColor" d="M414.621 414.585c-.29.06-.708-.043-1.206-.35.306-.075.692.056 1.206.35"/><path fill="currentColor" d="M240.765 498.44c.373-.26.572-.313 1.074-.43 3.23-1.22 5.935-2.788 8.803-4.74 2.9-1.745 5.77-2.671 9.013-3.406 4.882 2.334 8.202 5.419 7.754 11.304-.207 2.715 4.109 5.144 1.158 8.132-2.1 2.126-5.11 2.998-7.921 4.044-1.281.476-2.144 1.538-2.653 3.223-2.39.245-4.155 1.805-6.609 2.413-2.038-3.79-5.273-7.174-3.851-11.907.546-1.818-1.123-1.579-1.921-2.227-2.02-1.639-5.039-.06-6.748-2.569.748-1.12 1.404-1.905 2.112-2.998-.094-.416-.239-.523-.21-.838"/><path fill="currentColor" d="M296.505 453.061c-.917-3.919-4.025-7.84-.199-11.785.557-.574-.962-.917-1.517-1.385-2.588-2.18-4.204-4.81-2.922-8.741.363-2.501 1.776-2.885 3.933-2.424 13.58 1.934 26.551-.572 39.557-2.405 2.256-.318 4.494-.605 5.98 1.27 1.537 1.938-1.342 2.637-1.67 4.14-.212.966-.572 1.899-.762 2.867-.829 4.232-1.275 8.661-7.1 9.096-1.334.1-1.828 1.319-.976 2.973-9.56.56-18.934 2.473-28.064 5.604-1.927.662-3.858.788-6.26.79M281.247 457.398c4.226-2.46 9.087-3.439 14.37-4.345-4.02 2.842-8.9 4.214-14.37 4.345M274.407 459.987c.466-1.133 1.678-1.582 3.3-1.903.052 2.001-1.484 1.885-3.3 1.903M271.318 460.956q.267-.435 1.406-.895-.267.437-1.406.895M250.539 493.031c-1.039 3.743-4.517 4.078-8.034 4.927-.132-.468.099-.922.468-1.593 1.212-.385 2.407-.303 3.084-1.87.632-.518 1.14-.732 1.843-1.148.892-.243 1.59-.284 2.639-.316"/><path fill="currentColor" d="M238.595 501.96c3.856-.307 6.883 1.59 10.209 2.097 1.576.24 2.96 1.246 1.302 2.465-3.756 2.764-1.372 5.386.209 7.39 1.282 1.626 1.332 2.789.736 4.757-.03.523-.032.691-.038 1.111-3.563 1.772-6.117 4.812-10.392 5.557-4.72.823-8.305-.122-11.014-3.562-2.849-3.619-2.345-8.091-.31-11.767 1.945-3.51 4.622-6.851 9.298-8.048"/><path fill="currentColor" d="M240.743 498.278c.195-.045.269.32.276.506-.16.188-.327.19-.744.165-.137-.282.036-.481.468-.67"/><path fill="currentColor" d="M803.832 676.704c2.719.635 4.936-1.094 7.788-1.639 3.038 5.186-2.101 3.666-4.231 4.686 1.207 1.903 2.937 1.178 4.266 1.56 2.882.83 4.634 2.092 4.42 5.512-.15 2.421.607 4.888.62 7.336.004 1.015-.699 2.195-1.418 2.996-.49.545-2.313-.039-1.644 1.574.519 1.254 1.834 1.355 3.022.906 2.917-1.102 5.918-.463 9.372-.492-18.52 7.649-38.171 13.004-58.674 16.767-2.596-.674-4.792-.604-7.108.282-17.489 2.232-34.774 1.692-52.252-1.783 1.321-2.313 3.613-2.115 5.696-1.756 10.918 1.881 21.803 2.4 33.107-.173 13.984-.312 27.16-3.018 40.168-6.602 4.776-1.316 4.975-2.017 2.278-5.84-1.253-1.776-1.336-3.656-1.463-5.664-.335-5.296-2.442-7.039-7.743-6.608-1.836.15-3.585.706-5.366 1.125-7.14 1.679-14.324 3.052-22.146 2.674-5.56.365-10.701.342-15.835.163-2.23-.078-4.788.232-5.81-2.937 18.233.51 35.972-1.541 53.435-6.17 1.114-.295 2.25-.51 3.76-.753 5.52-1.082 10.457-2.835 15.623-4.82.195-.342.14-.314.135-.344"/><path fill="currentColor" d="M665.175 668.816c6.516 2.854 12.69 5.622 19.136 8.643-.984 2.39-3.176 1.87-5.07 2.06-6.67.668-9.462 2.321-10.097 6.116-1.727 10.331-.923 12.207 6.737 15.675 1.961.888 4.005 1.628 5.84 3.462.376.51.502.732.697 1.333.004.628-.06.877-.478 1.28-11.957-3.076-22.442-8.784-33.23-14.65-.327-.104-.395-.1-.423-.081-2.126-.359-3.998-1.184-5.76-2.986-.368-.466-.486-.676-.765-1.212a37 37 0 0 0-.69-1.297c-1.611-3.39-1.52-6.436-.102-9.487.848-1.827 1.69-3.794 1.379-5.767-.766-4.848 2.383-7.566 5.195-10.574 2.124-2.273 3.953-.253 6.236.399.339.161.266.224.272.176.171.277.394.556.93.853.264.057.131.052.155-.01.202.683.85.732 1.708 1.016.28.129.175.126.22.1.56.99 1.586 1.303 2.792 1.886.287.122.22.18.213.136.154.291.378.578.929.867.272.045.122.04.148-.031.18.717.853.756 1.752.99.307.078.223.152.2.1.308.734 1.1.68 2.076 1.003"/><path fill="currentColor" d="M748.26 713.717c-7.426 1.65-14.604 2.855-21.93 2.234-5.912-.502-11.718-2.012-18.162-1.858-6.667-.37-12.478-2.51-18.792-4.175-1.242-1.29-3.585-.824-3.244-3.288 3.682-1.9 7.151-1.126 10.55-.398 7.155 1.532 14.248 3.388 21.575 3.945 3.138.238 6.623.86 8.464-2.594 1.943-3.642 2.45-7.7.885-11.584-1.238-3.074-4.626-3.37-7.262-3.538-8.938-.568-17.184-3.816-25.662-6.115-4.28-1.161-8.5-2.913-9.898-8.11 12.321 4.174 24.775 7.356 37.884 9.648 2.133.253 3.84.882 5.93.461.79-.15 1.273-.177 2.104-.098 1.052 2.378 2.976 1.693 4.5 1.715 5.606.078 11.213.05 17.285.07.213 3.108.517 6.07 1.392 9.14 1.977 6.939.624 10.032-5.62 14.545"/><path fill="currentColor" d="M718.595 735.355c.446.446.437.776.42 1.354-4.389 3.533-8.911.531-13.347.38-2.078-.07-4.207-.654-6.796-.742-1.657-.229-2.712-.749-3.886-1.93-.295-.653-.323-.948-.123-1.625 7.876.869 15.505 2.278 23.732 2.563"/><path fill="currentColor" d="M694.773 732.268c.302.401.287.66.246 1.307-5.114 2.415-9.393-.563-14.283-2.01-.995-.466-1.635-.81-2.62-1.253-1.202-.507-2.012-.977-2.834-2.006-.127-.587.029-.837.46-1.15 6.367 1.581 12.54 3.276 19.03 5.112"/><path fill="currentColor" d="M685.743 706.714c1.216 1.003 2.17 1.73 3.197 2.758-2.202-.322-4.477-.946-7.054-1.751-.3-.182-.1-.468.013-.6.688-.652 1.335-1.018 2.505-1.03.611.144.844.246 1.339.623"/><path fill="currentColor" d="M760.558 716.556c1.22-2.7 3.626-1.365 6.103-.929-1.7.48-3.686.71-6.103.929"/><path fill="currentColor" d="M671.927 725.549c-1.594.61-3.144.07-4.667-1.454 1.367.184 2.908.685 4.667 1.454M673.622 726.134c-.28.696-.826.864-1.405-.165.336-.155.73-.06 1.405.165M666.979 723.589q-.599.184-1.735-.354.598-.183 1.735.354"/><path fill="currentColor" d="M733.72 735.273c.22.05-.07.343-.07.343s-.397-.024-.487-.133c-.09-.108.336-.261.557-.21"/><path fill="currentColor" d="M623.164 698.534c-.234.102-.541-.06-.937-.479.23-.099.546.058.937.479M622.083 697.594c-.218.097-.53-.077-.974-.49.205-.086.542.066.974.49"/><path fill="currentColor" d="M686.456 706.999c-.451-.009-.941-.011-1.186-.02-.945-.587-1.777-.835-2.983-.993-2.827-1.246-5.278-2.583-7.834-3.672-7.196-3.065-8.325-4.898-7.385-12.476 1.299-10.476 2.57-11.396 17.027-12.043.49-.084.753-.104.83.003 4.257 6.535 11.406 7.038 17.8 9.293 7.773 2.742 15.98 2.99 23.843 5.04.469.121 1.06.254 1.33.592 3.727 4.657 2.12 9.765.963 14.706-.777 3.317-3.265 4.635-6.727 4.606-9.02-.073-17.653-2.434-26.346-4.343-2.994-.658-5.919-.516-9.332-.693"/><path fill="currentColor" d="M602.95 658.408c.837-.526 2.056-.752 1.567-2.11-2.787-7.727-.524-15.93-2.334-23.798-.62-2.69-.1-6.074 3.324-7.503 2.041-.852.666-2.169.538-3.668.392-.052.831.244 1.527.618 8.656 10.482 19.512 18.236 29.528 27.35-.423 1.82-1.699 3.203-1.66 4.841.21 8.802-4.748 15.519-9.185 22.821-8.728-4.94-16.014-11.506-23.305-18.551"/><path fill="currentColor" d="M626.111 677.471c-.185-3.693.798-6.452 3.562-8.893 2.626-2.32 3.238-5.78 3.464-9.409.203-3.261-.947-7.38 3.717-9.465.402-.124.4-.064.385-.038-.003.447.16.791.801 1.037.303-.01.183.03.2-.03.07.783.76.795 1.617 1.102 4.828 3.277 9.38 6.402 14.096 9.822-1.72 1.325-6.943-3.48-5.446 3.498.018.085-.226.33-.33.32-7.44-.697-2.966 5.06-4.152 7.73-.388.874-.129 2.099-.634 2.846-2.407 3.56-2.414 7.348-1.457 11.709-.171.523-.314.633-.703.628-.246-.116-.507-.397-.695-.433-.551-.106-.869-.267-1.335-.708-.612-.524-1.03-.856-1.72-1.23-.577-.18-.853-.363-1.298-.743-.66-.492-1.124-.832-1.878-1.23a150 150 0 0 1-8.194-6.513"/><path fill="currentColor" d="M692.043 658.417c5.812.523 11.302 2.871 17.034 5.616-5.746-.62-11.301-2.955-17.034-5.616"/><path fill="currentColor" d="M803.5 676.734c-3.636 3.987-8.933 4.457-14.591 5.16 4.432-1.721 9.316-3.426 14.59-5.16"/><path fill="currentColor" d="M728.573 688.124c-1.396 1.285-3.215.98-5.286.163 1.494-.261 3.224-.261 5.286-.163M680.1 653.366c1.23-.168 2.881-.841 3.768 1.339-1.16-.111-2.387-.576-3.768-1.339"/><path fill="currentColor" d="M660.012 665.582c-1.085.36-2.382.613-2.88-1.38.901.12 1.825.605 2.88 1.38"/><path fill="currentColor" d="M684.124 655.362c.702-.117 1.575.064 2.653.519-.69.109-1.586-.056-2.653-.52M689.12 657.35q1.03-.144 2.654.563-1.03.142-2.654-.564"/><path fill="currentColor" d="M665.286 668.639c-.455.09-1.143-.083-2.02-.566.47-.106 1.128.098 2.02.566"/><path fill="currentColor" d="M687.012 656.374c.436-.112 1.018.056 1.78.475-.425.101-1.03-.047-1.78-.475"/><path fill="currentColor" d="M656.973 663.626c-.433.07-1.017-.126-1.707-.632.449-.083 1.001.14 1.707.632M663.065 667.509c-.465.115-1.072-.053-1.785-.539.477-.126 1.06.065 1.785.539"/><path fill="currentColor" d="M639.981 651.667c-.421.033-.995-.193-1.646-.737.447-.053.97.212 1.646.737"/><path fill="currentColor" d="M655.174 662.538c-.246.124-.565-.03-1-.432.232-.114.58.02 1 .432"/><path fill="currentColor" d="M638.264 650.429c-.25.116-.58-.032-.974-.458.255-.121.575.036.974.458"/><path fill="currentColor" d="M661.197 666.52c-.25.128-.574-.024-1.016-.426.236-.119.59.014 1.016.426"/><path fill="currentColor" d="M697.958 735.41c6.876-.777 13.42 1.539 20.62 1.564 8.496.068 16.548.039 24.998-.973 1.521 2.354 4.7 4.075 1.767 7.496-1.174 1.37.768 2.554 2.486 2.475 5.824-.268 4.884 4.085 5.154 7.541.337 4.309-2.522 5.288-5.99 5.47-3.721.194-7.428.406-10.908 2.605-1.161.385-2.222.402-3.68.424-.98.005-1.518.145-2.227.654-1.293.182-2.352.204-3.808.207-2.47-.763-4.608-.243-7.03-.175-6.806-1.545-13.608.113-20.095-1.69-1.425-.397-2.911-.574-4.766-.916-.542-.262-.688-.46-.694-.999 4.476-2.537 9.154-3.62 13.873-4.585 1.612-.33 3.614-.48 3.926-2.462.33-2.11-1.416-3.243-3.025-4.15-3.06-1.726-6.413-1.402-9.745-1.258-1.56.068-3.847.749-4.038-1.584-.177-2.164 2.105-2.167 3.697-2.453 2.542-.456 5.28-.12 7.83-1.808-2.304-2.927-6.82-1.601-8.345-5.383"/><path fill="currentColor" d="M767.475 746.462c.047-.026-.046.025 0 0"/><path fill="currentColor" d="M595.912 584.632c-.356-.067-.739-.421-1.185-1.036.345.076.752.412 1.185 1.036M589.75 577.92q-.3.09-.808-.541.426-.275.809.541M590.751 578.912c-.275.191-.548.022-.828-.501.198-.068.477.097.828.501M591.689 579.967c-.306.19-.563.002-.787-.554.205-.056.473.126.787.554M592.684 580.974c-.291.204-.558.037-.827-.482.205-.074.49.08.827.482M593.648 582.002c-.309.2-.564.022-.803-.51.21-.067.49.095.803.51M594.619 583.022c-.31.2-.562.029-.81-.48.213-.074.5.075.81.48"/><path fill="currentColor" d="M616.783 605.215c-.544-.098-1.066-.617-1.619-1.507.961-.384 1.532.086 1.619 1.507"/><path fill="currentColor" d="M697.729 734.934c2.39 2.42 5.445 2.153 8.07 2.985 1.505.477 3.077.74 2.985 2.65-.098 2.052-1.773 2.661-3.489 2.858-3.187.367-6.39.61-9.565 1.575 2.253 0 4.51.096 6.757-.027 2.388-.13 4.761.191 6.728 1.36 2.347 1.397 5.26 3.025 4.528 6.391-.636 2.929-3.465 3.204-6.012 3.27-4.527.115-8.343 3.212-13.345 3.045-.57.181-.726.348-1.157.717-.694.213-1.113.223-1.845.217-.583-1.723-1.961-1.756-3.258-2.13-6.825-1.971-13.588-4.16-20.44-6.025-3.824-1.04-6.935-3.21-9.81-5.66-5.537-4.716-2.468-12.087 2.138-16.226 4.364-3.92 9.48-2.808 14.79-1.745 1.041.072 1.805.313 2.844.692.744.563 1.352.615 2.167.936a362 362 0 0 0 14.784 4.148c1.206.277 2.019.556 3.13.969"/><path fill="currentColor" d="M719.455 762.9c1.604-1.456 3.779-.998 6.237-.28-1.748.263-3.776.292-6.237.28M730.241 762.853c-.045-.89.097-1.908 1.598-1.05-.321.502-.81.79-1.598 1.05"/><path fill="currentColor" d="M693.235 759.99c-.132-.307.07-.54.53-.83.206-.104.246.384.282.626-.153.24-.341.236-.812.204"/><path fill="currentColor" d="M296.392 428.699c-1.494.714-2.73 1.175-4.186 1.869-1.95.293-3.679.354-5.84.443-.833.48-1.417.464-2.165.768-1.592.448-2.958.739-4.669 1.083-.606-.162-.866-.377-.875-1.033 7.964-4.095 16.38-5.16 24.617-6.608 16.7-2.937 33.55-4.485 50.54-3.265 3.14.226 6.26.727 9.806 1.229-3.026 2.11-6.373.008-9.764-.127-19.313-.772-38.334 1.513-57.464 5.641"/><path fill="currentColor" d="M480.77 452.81c.573 1.018.868 1.83 1.147 2.97-3.858-1.372-6.406-4.717-9.709-7.54 3.38.031 6.45 1.095 8.562 4.57"/><path fill="currentColor" d="M278.512 431.404c.444.239.493.493.608 1.13-2.849.823-5.4 2.796-8.917 2.3 1.985-2.18 5.084-2.457 8.309-3.43"/><path fill="currentColor" d="M468.656 442.696c1.277.873 2.527 1.37 1.649 3.11-2.086.32-3.007-1.01-4.077-2.535.563-.907 1.292-1.016 2.428-.575"/><path fill="currentColor" d="M468.944 442.56c-.663.351-1.372.364-2.432.382-.665-.158-.978-.32-1.4-.73-.084-.686-.06-1.123.002-1.887 1.744-.354 3.266-.074 3.83 2.236"/><path fill="currentColor" d="M269.369 434.54c.23.41.173.816-.118 1.442-.505-.029-.777-.277-1.148-.783.26-.392.618-.527 1.266-.659"/><path fill="currentColor" d="M266.936 434.534c-.394-.75-.011-1.102 1.023-1.054-.06.42-.42.72-1.023 1.054"/><path fill="currentColor" d="M471.103 447.223c.278-.19.538-.025.844.445-.195.076-.498-.055-.844-.445"/><path fill="currentColor" d="M595.122 608.583c-.23.033-.534-.224-.89-.787.239-.038.527.23.89.787M596.129 609.615q-.317.11-.902-.551.317-.11.902.55"/><path fill="currentColor" d="M377.964 428.555c-.707-.388-.715-.778-.207-1.122.106-.073.351-.072.454.003.5.361.467.752-.247 1.119M380.536 427.553c-.058.034.057-.035 0 0"/><path fill="currentColor" d="M284.264 431.934q.262-.441 1.386-.893-.262.443-1.386.893"/><path fill="currentColor" d="M454.916 431.607c-5.48-.777-9.396-5.05-14.66-7.347 3.14-2.464 5.21 1.434 8.414 1.612 2.281 1.901 4.237 3.653 6.246 5.735M462.923 437.606c-2.85-.62-5.461-1.928-6.879-5.206 3.193.153 5.52 1.85 6.88 5.206"/><path fill="currentColor" d="M598.21 612.8c-.06.031-.19.068-.184-.011.135-.118.117.017.184.011"/><path fill="currentColor" d="M298.524 449.54c-.046.025.046-.026 0 0"/><path fill="currentColor" d="M748.436 713.984c-.02-1.072.15-2.38.885-3.152 3.939-4.148 5.115-8.952 2.278-13.829-1.646-2.83-1.017-4.53 1.151-6.698 8.393-.08 16.274-1.79 24.196-3.688 7.122-1.707 13.29-2.039 12.146 9.651-.213 2.176 1.325 2.825 2.554 3.863 3.31 2.795 3.254 4.513-.583 5.93-9.795 3.618-20.009 5.627-30.338 6.84-3.92.46-7.808 1.71-12.289 1.083"/><path fill="currentColor" d="M681.972 706.22c1.179-1.597 1.974-.715 2.905.494-.606.267-1.36.277-2.489.28-.385-.177-.395-.348-.416-.775"/><path fill="currentColor" d="M642.84 688.636c-.223.246-.52.142-.84-.364.218-.168.48-.03.84.364"/><path fill="currentColor" d="M748.54 694.475c.026.047-.025-.046 0 0"/><path fill="currentColor" d="M679.858 729.76c-.378.063-.952-.112-1.73-.514.374-.06.954.108 1.73.514"/><path fill="currentColor" d="M606.945 626.879c-.073.009-.179-.133-.284-.275.083.041.167.083.284.275M607.016 626.989c.118.127.22.266.323.405a.9.9 0 0 1-.301-.244c-.06-.12-.036-.15-.022-.161"/><path fill="currentColor" d="M739.716 737.364c.61-.064 1.034.012 1.458.089-.196.22-.35.541-.595.64-.527.214-1.3.664-.863-.729"/></svg>